<mxfile host="app.diagrams.net" modified="2023-05-29T12:09:22.816Z" agent="Mozilla/5.0 (Windows NT 10.0; Win64; x64) AppleWebKit/537.36 (KHTML, like Gecko) Chrome/113.0.0.0 Safari/537.36" etag="nJgtuqtAEFfb7apsklQG" version="21.3.5" type="github">
  <diagram name="Page-1" id="5Tg-gZHsURCLQMYDmfQV">
    <mxGraphModel dx="2216" dy="2928" grid="1" gridSize="10" guides="1" tooltips="1" connect="1" arrows="1" fold="1" page="1" pageScale="1" pageWidth="850" pageHeight="1100" math="0" shadow="0">
      <root>
        <mxCell id="0" />
        <mxCell id="1" parent="0" />
        <mxCell id="oMkmgtETga6Oj0YshDAm-8" style="edgeStyle=orthogonalEdgeStyle;rounded=0;orthogonalLoop=1;jettySize=auto;html=1;exitX=0;exitY=0.25;exitDx=0;exitDy=0;entryX=0.5;entryY=0;entryDx=0;entryDy=0;" edge="1" parent="1" source="oMkmgtETga6Oj0YshDAm-1" target="oMkmgtETga6Oj0YshDAm-7">
          <mxGeometry relative="1" as="geometry" />
        </mxCell>
        <mxCell id="oMkmgtETga6Oj0YshDAm-202" style="edgeStyle=orthogonalEdgeStyle;rounded=0;orthogonalLoop=1;jettySize=auto;html=1;exitX=0;exitY=0.5;exitDx=0;exitDy=0;entryX=0.25;entryY=0;entryDx=0;entryDy=0;" edge="1" parent="1" source="oMkmgtETga6Oj0YshDAm-1" target="oMkmgtETga6Oj0YshDAm-165">
          <mxGeometry relative="1" as="geometry" />
        </mxCell>
        <mxCell id="oMkmgtETga6Oj0YshDAm-260" style="edgeStyle=orthogonalEdgeStyle;rounded=0;orthogonalLoop=1;jettySize=auto;html=1;" edge="1" parent="1" source="oMkmgtETga6Oj0YshDAm-1" target="oMkmgtETga6Oj0YshDAm-203">
          <mxGeometry relative="1" as="geometry" />
        </mxCell>
        <mxCell id="oMkmgtETga6Oj0YshDAm-1" value="login" style="swimlane;whiteSpace=wrap;html=1;" vertex="1" parent="1">
          <mxGeometry x="1840" y="30" width="200" height="190" as="geometry" />
        </mxCell>
        <mxCell id="oMkmgtETga6Oj0YshDAm-2" value="phone" style="rounded=0;whiteSpace=wrap;html=1;" vertex="1" parent="oMkmgtETga6Oj0YshDAm-1">
          <mxGeometry x="45" y="40" width="120" height="30" as="geometry" />
        </mxCell>
        <mxCell id="oMkmgtETga6Oj0YshDAm-3" value="password&amp;nbsp;" style="rounded=0;whiteSpace=wrap;html=1;" vertex="1" parent="oMkmgtETga6Oj0YshDAm-1">
          <mxGeometry x="45" y="90" width="120" height="30" as="geometry" />
        </mxCell>
        <mxCell id="oMkmgtETga6Oj0YshDAm-4" value="login" style="rounded=1;whiteSpace=wrap;html=1;" vertex="1" parent="oMkmgtETga6Oj0YshDAm-1">
          <mxGeometry x="45" y="130" width="75" height="20" as="geometry" />
        </mxCell>
        <mxCell id="oMkmgtETga6Oj0YshDAm-5" value="forgot password" style="text;html=1;align=center;verticalAlign=middle;resizable=0;points=[];autosize=1;strokeColor=none;fillColor=none;" vertex="1" parent="oMkmgtETga6Oj0YshDAm-1">
          <mxGeometry x="90" y="160" width="110" height="30" as="geometry" />
        </mxCell>
        <mxCell id="oMkmgtETga6Oj0YshDAm-7" value="Farmer Dashboard" style="swimlane;whiteSpace=wrap;html=1;" vertex="1" parent="1">
          <mxGeometry x="-690" y="340" width="510" height="530" as="geometry" />
        </mxCell>
        <mxCell id="oMkmgtETga6Oj0YshDAm-9" value="Add new Batch info" style="rounded=0;whiteSpace=wrap;html=1;fillColor=#d5e8d4;strokeColor=#82b366;" vertex="1" parent="oMkmgtETga6Oj0YshDAm-7">
          <mxGeometry x="20" y="40" width="120" height="60" as="geometry" />
        </mxCell>
        <mxCell id="oMkmgtETga6Oj0YshDAm-11" value="Prev Batch" style="rounded=0;whiteSpace=wrap;html=1;fillColor=#d5e8d4;strokeColor=#82b366;" vertex="1" parent="oMkmgtETga6Oj0YshDAm-7">
          <mxGeometry x="205" y="40" width="120" height="60" as="geometry" />
        </mxCell>
        <mxCell id="oMkmgtETga6Oj0YshDAm-10" value="Accounts" style="rounded=0;whiteSpace=wrap;html=1;fillColor=#d5e8d4;strokeColor=#82b366;" vertex="1" parent="oMkmgtETga6Oj0YshDAm-7">
          <mxGeometry x="370" y="40" width="120" height="60" as="geometry" />
        </mxCell>
        <mxCell id="oMkmgtETga6Oj0YshDAm-13" value="Food Order List" style="rounded=0;whiteSpace=wrap;html=1;fillColor=#d5e8d4;strokeColor=#82b366;" vertex="1" parent="oMkmgtETga6Oj0YshDAm-7">
          <mxGeometry x="205" y="150" width="120" height="60" as="geometry" />
        </mxCell>
        <mxCell id="oMkmgtETga6Oj0YshDAm-14" value="Ads" style="rounded=1;whiteSpace=wrap;html=1;" vertex="1" parent="oMkmgtETga6Oj0YshDAm-7">
          <mxGeometry x="100" y="320" width="310" height="150" as="geometry" />
        </mxCell>
        <mxCell id="oMkmgtETga6Oj0YshDAm-374" value="Hens Order List" style="rounded=0;whiteSpace=wrap;html=1;fillColor=#d5e8d4;strokeColor=#82b366;" vertex="1" parent="oMkmgtETga6Oj0YshDAm-7">
          <mxGeometry x="370" y="150" width="120" height="60" as="geometry" />
        </mxCell>
        <mxCell id="oMkmgtETga6Oj0YshDAm-15" value="Entry form" style="swimlane;whiteSpace=wrap;html=1;" vertex="1" parent="1">
          <mxGeometry x="-110" y="740" width="320" height="130" as="geometry" />
        </mxCell>
        <mxCell id="oMkmgtETga6Oj0YshDAm-17" value="Full batch information&amp;nbsp;" style="text;html=1;align=center;verticalAlign=middle;resizable=0;points=[];autosize=1;strokeColor=none;fillColor=none;" vertex="1" parent="oMkmgtETga6Oj0YshDAm-15">
          <mxGeometry x="80" y="60" width="140" height="30" as="geometry" />
        </mxCell>
        <mxCell id="oMkmgtETga6Oj0YshDAm-16" style="edgeStyle=orthogonalEdgeStyle;rounded=0;orthogonalLoop=1;jettySize=auto;html=1;entryX=0.5;entryY=0;entryDx=0;entryDy=0;" edge="1" parent="1" source="oMkmgtETga6Oj0YshDAm-9" target="oMkmgtETga6Oj0YshDAm-15">
          <mxGeometry relative="1" as="geometry">
            <Array as="points">
              <mxPoint x="-610" y="460" />
              <mxPoint x="50" y="460" />
            </Array>
          </mxGeometry>
        </mxCell>
        <mxCell id="oMkmgtETga6Oj0YshDAm-18" value="Batch info list" style="swimlane;whiteSpace=wrap;html=1;" vertex="1" parent="1">
          <mxGeometry x="181" y="450" width="425" height="250" as="geometry" />
        </mxCell>
        <mxCell id="oMkmgtETga6Oj0YshDAm-19" value="" style="rounded=0;whiteSpace=wrap;html=1;" vertex="1" parent="oMkmgtETga6Oj0YshDAm-18">
          <mxGeometry x="15" y="40" width="125" height="20" as="geometry" />
        </mxCell>
        <mxCell id="oMkmgtETga6Oj0YshDAm-20" value="" style="rounded=0;whiteSpace=wrap;html=1;" vertex="1" parent="oMkmgtETga6Oj0YshDAm-18">
          <mxGeometry x="15" y="60" width="125" height="20" as="geometry" />
        </mxCell>
        <mxCell id="oMkmgtETga6Oj0YshDAm-21" value="" style="rounded=0;whiteSpace=wrap;html=1;" vertex="1" parent="oMkmgtETga6Oj0YshDAm-18">
          <mxGeometry x="15" y="80" width="125" height="20" as="geometry" />
        </mxCell>
        <mxCell id="oMkmgtETga6Oj0YshDAm-22" value="" style="rounded=0;whiteSpace=wrap;html=1;" vertex="1" parent="oMkmgtETga6Oj0YshDAm-18">
          <mxGeometry x="15" y="100" width="125" height="20" as="geometry" />
        </mxCell>
        <mxCell id="oMkmgtETga6Oj0YshDAm-24" value="" style="endArrow=none;html=1;rounded=0;exitX=0.5;exitY=1;exitDx=0;exitDy=0;entryX=0.5;entryY=0;entryDx=0;entryDy=0;" edge="1" parent="oMkmgtETga6Oj0YshDAm-18" source="oMkmgtETga6Oj0YshDAm-22" target="oMkmgtETga6Oj0YshDAm-19">
          <mxGeometry width="50" height="50" relative="1" as="geometry">
            <mxPoint x="25" y="90" as="sourcePoint" />
            <mxPoint x="75" y="40" as="targetPoint" />
          </mxGeometry>
        </mxCell>
        <mxCell id="oMkmgtETga6Oj0YshDAm-26" value="" style="rounded=0;whiteSpace=wrap;html=1;" vertex="1" parent="oMkmgtETga6Oj0YshDAm-18">
          <mxGeometry x="140" y="40" width="125" height="20" as="geometry" />
        </mxCell>
        <mxCell id="oMkmgtETga6Oj0YshDAm-27" value="" style="rounded=0;whiteSpace=wrap;html=1;" vertex="1" parent="oMkmgtETga6Oj0YshDAm-18">
          <mxGeometry x="140" y="60" width="125" height="20" as="geometry" />
        </mxCell>
        <mxCell id="oMkmgtETga6Oj0YshDAm-28" value="" style="rounded=0;whiteSpace=wrap;html=1;" vertex="1" parent="oMkmgtETga6Oj0YshDAm-18">
          <mxGeometry x="140" y="80" width="125" height="20" as="geometry" />
        </mxCell>
        <mxCell id="oMkmgtETga6Oj0YshDAm-29" value="" style="rounded=0;whiteSpace=wrap;html=1;" vertex="1" parent="oMkmgtETga6Oj0YshDAm-18">
          <mxGeometry x="140" y="100" width="125" height="20" as="geometry" />
        </mxCell>
        <mxCell id="oMkmgtETga6Oj0YshDAm-30" value="" style="endArrow=none;html=1;rounded=0;exitX=0.5;exitY=1;exitDx=0;exitDy=0;entryX=0.5;entryY=0;entryDx=0;entryDy=0;" edge="1" parent="oMkmgtETga6Oj0YshDAm-18" source="oMkmgtETga6Oj0YshDAm-29" target="oMkmgtETga6Oj0YshDAm-26">
          <mxGeometry width="50" height="50" relative="1" as="geometry">
            <mxPoint x="150" y="90" as="sourcePoint" />
            <mxPoint x="200" y="40" as="targetPoint" />
          </mxGeometry>
        </mxCell>
        <mxCell id="oMkmgtETga6Oj0YshDAm-31" value="" style="rounded=0;whiteSpace=wrap;html=1;" vertex="1" parent="oMkmgtETga6Oj0YshDAm-18">
          <mxGeometry x="265" y="40" width="155" height="20" as="geometry" />
        </mxCell>
        <mxCell id="oMkmgtETga6Oj0YshDAm-32" value="" style="rounded=0;whiteSpace=wrap;html=1;" vertex="1" parent="oMkmgtETga6Oj0YshDAm-18">
          <mxGeometry x="265" y="60" width="155" height="20" as="geometry" />
        </mxCell>
        <mxCell id="oMkmgtETga6Oj0YshDAm-33" value="" style="rounded=0;whiteSpace=wrap;html=1;" vertex="1" parent="oMkmgtETga6Oj0YshDAm-18">
          <mxGeometry x="265" y="80" width="155" height="20" as="geometry" />
        </mxCell>
        <mxCell id="oMkmgtETga6Oj0YshDAm-34" value="" style="rounded=0;whiteSpace=wrap;html=1;" vertex="1" parent="oMkmgtETga6Oj0YshDAm-18">
          <mxGeometry x="265" y="100" width="155" height="20" as="geometry" />
        </mxCell>
        <mxCell id="oMkmgtETga6Oj0YshDAm-36" value="&lt;font style=&quot;font-size: 6px;&quot;&gt;&lt;sup&gt;Edit&lt;/sup&gt;&lt;/font&gt;" style="rounded=0;whiteSpace=wrap;html=1;" vertex="1" parent="oMkmgtETga6Oj0YshDAm-18">
          <mxGeometry x="267" y="45" width="25" height="10" as="geometry" />
        </mxCell>
        <mxCell id="oMkmgtETga6Oj0YshDAm-37" value="&lt;font style=&quot;font-size: 6px;&quot;&gt;&lt;sup&gt;view&lt;/sup&gt;&lt;/font&gt;" style="rounded=0;whiteSpace=wrap;html=1;align=center;" vertex="1" parent="oMkmgtETga6Oj0YshDAm-18">
          <mxGeometry x="294" y="45" width="25" height="10" as="geometry" />
        </mxCell>
        <mxCell id="oMkmgtETga6Oj0YshDAm-38" value="&lt;span style=&quot;font-size: 6px;&quot;&gt;&lt;sup&gt;prescription&lt;/sup&gt;&amp;nbsp;&lt;/span&gt;" style="rounded=0;whiteSpace=wrap;html=1;" vertex="1" parent="oMkmgtETga6Oj0YshDAm-18">
          <mxGeometry x="321" y="45" width="39" height="10" as="geometry" />
        </mxCell>
        <mxCell id="oMkmgtETga6Oj0YshDAm-39" value="&lt;font style=&quot;font-size: 6px;&quot;&gt;&lt;sup&gt;Food&lt;/sup&gt;&lt;/font&gt;" style="rounded=0;whiteSpace=wrap;html=1;" vertex="1" parent="oMkmgtETga6Oj0YshDAm-18">
          <mxGeometry x="363" y="45" width="25" height="10" as="geometry" />
        </mxCell>
        <mxCell id="oMkmgtETga6Oj0YshDAm-40" value="&lt;font style=&quot;font-size: 6px;&quot;&gt;&lt;sup&gt;Edit&lt;/sup&gt;&lt;/font&gt;" style="rounded=0;whiteSpace=wrap;html=1;" vertex="1" parent="oMkmgtETga6Oj0YshDAm-18">
          <mxGeometry x="267" y="65" width="25" height="10" as="geometry" />
        </mxCell>
        <mxCell id="oMkmgtETga6Oj0YshDAm-41" value="&lt;font style=&quot;font-size: 6px;&quot;&gt;&lt;sup&gt;view&lt;/sup&gt;&lt;/font&gt;" style="rounded=0;whiteSpace=wrap;html=1;align=center;" vertex="1" parent="oMkmgtETga6Oj0YshDAm-18">
          <mxGeometry x="294" y="65" width="25" height="10" as="geometry" />
        </mxCell>
        <mxCell id="oMkmgtETga6Oj0YshDAm-42" value="&lt;span style=&quot;font-size: 6px;&quot;&gt;&lt;sup&gt;prescription&lt;/sup&gt;&amp;nbsp;&lt;/span&gt;" style="rounded=0;whiteSpace=wrap;html=1;" vertex="1" parent="oMkmgtETga6Oj0YshDAm-18">
          <mxGeometry x="321" y="65" width="39" height="10" as="geometry" />
        </mxCell>
        <mxCell id="oMkmgtETga6Oj0YshDAm-43" value="&lt;font style=&quot;font-size: 6px;&quot;&gt;&lt;sup&gt;Food&lt;/sup&gt;&lt;/font&gt;" style="rounded=0;whiteSpace=wrap;html=1;" vertex="1" parent="oMkmgtETga6Oj0YshDAm-18">
          <mxGeometry x="363" y="65" width="25" height="10" as="geometry" />
        </mxCell>
        <mxCell id="oMkmgtETga6Oj0YshDAm-44" value="&lt;font style=&quot;font-size: 6px;&quot;&gt;&lt;sup&gt;Edit&lt;/sup&gt;&lt;/font&gt;" style="rounded=0;whiteSpace=wrap;html=1;" vertex="1" parent="oMkmgtETga6Oj0YshDAm-18">
          <mxGeometry x="267" y="85" width="25" height="10" as="geometry" />
        </mxCell>
        <mxCell id="oMkmgtETga6Oj0YshDAm-45" value="&lt;font style=&quot;font-size: 6px;&quot;&gt;&lt;sup&gt;view&lt;/sup&gt;&lt;/font&gt;" style="rounded=0;whiteSpace=wrap;html=1;align=center;" vertex="1" parent="oMkmgtETga6Oj0YshDAm-18">
          <mxGeometry x="294" y="85" width="25" height="10" as="geometry" />
        </mxCell>
        <mxCell id="oMkmgtETga6Oj0YshDAm-46" value="&lt;span style=&quot;font-size: 6px;&quot;&gt;&lt;sup&gt;prescription&lt;/sup&gt;&amp;nbsp;&lt;/span&gt;" style="rounded=0;whiteSpace=wrap;html=1;" vertex="1" parent="oMkmgtETga6Oj0YshDAm-18">
          <mxGeometry x="321" y="85" width="39" height="10" as="geometry" />
        </mxCell>
        <mxCell id="oMkmgtETga6Oj0YshDAm-47" value="&lt;font style=&quot;font-size: 6px;&quot;&gt;&lt;sup&gt;Food&lt;/sup&gt;&lt;/font&gt;" style="rounded=0;whiteSpace=wrap;html=1;" vertex="1" parent="oMkmgtETga6Oj0YshDAm-18">
          <mxGeometry x="363" y="85" width="25" height="10" as="geometry" />
        </mxCell>
        <mxCell id="oMkmgtETga6Oj0YshDAm-48" value="&lt;font style=&quot;font-size: 6px;&quot;&gt;&lt;sup&gt;Edit&lt;/sup&gt;&lt;/font&gt;" style="rounded=0;whiteSpace=wrap;html=1;fillColor=#d5e8d4;strokeColor=#82b366;" vertex="1" parent="oMkmgtETga6Oj0YshDAm-18">
          <mxGeometry x="267" y="105" width="25" height="10" as="geometry" />
        </mxCell>
        <mxCell id="oMkmgtETga6Oj0YshDAm-49" value="&lt;font style=&quot;font-size: 6px;&quot;&gt;&lt;sup&gt;view&lt;/sup&gt;&lt;/font&gt;" style="rounded=0;whiteSpace=wrap;html=1;align=center;fillColor=#d5e8d4;strokeColor=#82b366;" vertex="1" parent="oMkmgtETga6Oj0YshDAm-18">
          <mxGeometry x="294" y="105" width="25" height="10" as="geometry" />
        </mxCell>
        <mxCell id="oMkmgtETga6Oj0YshDAm-50" value="&lt;span style=&quot;font-size: 6px;&quot;&gt;&lt;sup&gt;prescription&lt;/sup&gt;&amp;nbsp;&lt;/span&gt;" style="rounded=0;whiteSpace=wrap;html=1;fillColor=#d5e8d4;strokeColor=#82b366;" vertex="1" parent="oMkmgtETga6Oj0YshDAm-18">
          <mxGeometry x="321" y="105" width="39" height="10" as="geometry" />
        </mxCell>
        <mxCell id="oMkmgtETga6Oj0YshDAm-51" value="&lt;font style=&quot;font-size: 6px;&quot;&gt;&lt;sup&gt;Food&lt;/sup&gt;&lt;/font&gt;" style="rounded=0;whiteSpace=wrap;html=1;fillColor=#d5e8d4;strokeColor=#82b366;" vertex="1" parent="oMkmgtETga6Oj0YshDAm-18">
          <mxGeometry x="363" y="105" width="25" height="10" as="geometry" />
        </mxCell>
        <mxCell id="oMkmgtETga6Oj0YshDAm-52" value="Ads" style="rounded=1;whiteSpace=wrap;html=1;" vertex="1" parent="oMkmgtETga6Oj0YshDAm-18">
          <mxGeometry x="96.25" y="140" width="193.75" height="70" as="geometry" />
        </mxCell>
        <mxCell id="oMkmgtETga6Oj0YshDAm-291" value="&lt;span style=&quot;font-size: 5px;&quot;&gt;&lt;sup&gt;Ready&lt;/sup&gt;&amp;nbsp;&lt;/span&gt;" style="rounded=0;whiteSpace=wrap;html=1;fillColor=#d5e8d4;strokeColor=#82b366;" vertex="1" parent="oMkmgtETga6Oj0YshDAm-18">
          <mxGeometry x="392" y="105" width="25" height="10" as="geometry" />
        </mxCell>
        <mxCell id="oMkmgtETga6Oj0YshDAm-294" value="&lt;span style=&quot;font-size: 5px;&quot;&gt;&lt;sup&gt;Ready&lt;/sup&gt;&amp;nbsp;&lt;/span&gt;" style="rounded=0;whiteSpace=wrap;html=1;fillColor=#d5e8d4;strokeColor=#82b366;" vertex="1" parent="oMkmgtETga6Oj0YshDAm-18">
          <mxGeometry x="392" y="85" width="25" height="10" as="geometry" />
        </mxCell>
        <mxCell id="oMkmgtETga6Oj0YshDAm-295" value="&lt;span style=&quot;font-size: 5px;&quot;&gt;&lt;sup&gt;Ready&lt;/sup&gt;&amp;nbsp;&lt;/span&gt;" style="rounded=0;whiteSpace=wrap;html=1;fillColor=#d5e8d4;strokeColor=#82b366;" vertex="1" parent="oMkmgtETga6Oj0YshDAm-18">
          <mxGeometry x="392" y="65" width="25" height="10" as="geometry" />
        </mxCell>
        <mxCell id="oMkmgtETga6Oj0YshDAm-296" value="&lt;span style=&quot;font-size: 5px;&quot;&gt;&lt;sup&gt;Ready&lt;/sup&gt;&amp;nbsp;&lt;/span&gt;" style="rounded=0;whiteSpace=wrap;html=1;fillColor=#d5e8d4;strokeColor=#82b366;" vertex="1" parent="oMkmgtETga6Oj0YshDAm-18">
          <mxGeometry x="392" y="45" width="25" height="10" as="geometry" />
        </mxCell>
        <mxCell id="oMkmgtETga6Oj0YshDAm-53" style="edgeStyle=orthogonalEdgeStyle;rounded=0;orthogonalLoop=1;jettySize=auto;html=1;exitX=0.5;exitY=1;exitDx=0;exitDy=0;entryX=0.683;entryY=-0.022;entryDx=0;entryDy=0;entryPerimeter=0;" edge="1" parent="1" source="oMkmgtETga6Oj0YshDAm-48" target="oMkmgtETga6Oj0YshDAm-15">
          <mxGeometry relative="1" as="geometry">
            <mxPoint x="110" y="678.936170212766" as="targetPoint" />
            <Array as="points">
              <mxPoint x="460" y="580" />
              <mxPoint x="109" y="580" />
            </Array>
          </mxGeometry>
        </mxCell>
        <mxCell id="oMkmgtETga6Oj0YshDAm-54" value="View Page" style="swimlane;whiteSpace=wrap;html=1;" vertex="1" parent="1">
          <mxGeometry x="260" y="740" width="200" height="130" as="geometry" />
        </mxCell>
        <mxCell id="oMkmgtETga6Oj0YshDAm-56" value="Full Batch Info" style="whiteSpace=wrap;html=1;" vertex="1" parent="oMkmgtETga6Oj0YshDAm-54">
          <mxGeometry x="40" y="45" width="120" height="60" as="geometry" />
        </mxCell>
        <mxCell id="oMkmgtETga6Oj0YshDAm-58" style="edgeStyle=orthogonalEdgeStyle;rounded=0;orthogonalLoop=1;jettySize=auto;html=1;exitX=0.5;exitY=1;exitDx=0;exitDy=0;entryX=0.5;entryY=0;entryDx=0;entryDy=0;" edge="1" parent="1" source="oMkmgtETga6Oj0YshDAm-49" target="oMkmgtETga6Oj0YshDAm-54">
          <mxGeometry relative="1" as="geometry">
            <Array as="points">
              <mxPoint x="487" y="670" />
              <mxPoint x="360" y="670" />
            </Array>
          </mxGeometry>
        </mxCell>
        <mxCell id="oMkmgtETga6Oj0YshDAm-59" value="prescription request" style="swimlane;whiteSpace=wrap;html=1;" vertex="1" parent="1">
          <mxGeometry x="568" y="730" width="200" height="210" as="geometry" />
        </mxCell>
        <mxCell id="oMkmgtETga6Oj0YshDAm-61" value="select doctor" style="rounded=0;whiteSpace=wrap;html=1;" vertex="1" parent="oMkmgtETga6Oj0YshDAm-59">
          <mxGeometry x="12" y="35" width="78" height="25" as="geometry" />
        </mxCell>
        <mxCell id="oMkmgtETga6Oj0YshDAm-62" value="Batch Info" style="rounded=0;whiteSpace=wrap;html=1;" vertex="1" parent="oMkmgtETga6Oj0YshDAm-59">
          <mxGeometry x="50" y="70" width="100" height="30" as="geometry" />
        </mxCell>
        <mxCell id="oMkmgtETga6Oj0YshDAm-63" value="symtoms" style="rounded=1;whiteSpace=wrap;html=1;" vertex="1" parent="oMkmgtETga6Oj0YshDAm-59">
          <mxGeometry x="50" y="110" width="100" height="30" as="geometry" />
        </mxCell>
        <mxCell id="oMkmgtETga6Oj0YshDAm-64" value="Request" style="rounded=1;whiteSpace=wrap;html=1;fillColor=#d5e8d4;strokeColor=#82b366;" vertex="1" parent="oMkmgtETga6Oj0YshDAm-59">
          <mxGeometry x="80" y="170" width="80" height="20" as="geometry" />
        </mxCell>
        <mxCell id="oMkmgtETga6Oj0YshDAm-60" style="edgeStyle=orthogonalEdgeStyle;rounded=0;orthogonalLoop=1;jettySize=auto;html=1;exitX=0.5;exitY=1;exitDx=0;exitDy=0;entryX=0.53;entryY=-0.004;entryDx=0;entryDy=0;entryPerimeter=0;" edge="1" parent="1" source="oMkmgtETga6Oj0YshDAm-50" target="oMkmgtETga6Oj0YshDAm-59">
          <mxGeometry relative="1" as="geometry" />
        </mxCell>
        <mxCell id="oMkmgtETga6Oj0YshDAm-382" style="edgeStyle=orthogonalEdgeStyle;rounded=0;orthogonalLoop=1;jettySize=auto;html=1;exitX=0.75;exitY=0;exitDx=0;exitDy=0;entryX=0;entryY=0.5;entryDx=0;entryDy=0;" edge="1" parent="1" source="oMkmgtETga6Oj0YshDAm-65" target="oMkmgtETga6Oj0YshDAm-380">
          <mxGeometry relative="1" as="geometry">
            <Array as="points">
              <mxPoint x="1000" y="670" />
              <mxPoint x="1140" y="670" />
              <mxPoint x="1140" y="-200" />
              <mxPoint x="1990" y="-200" />
              <mxPoint x="1990" y="-1120" />
            </Array>
          </mxGeometry>
        </mxCell>
        <mxCell id="oMkmgtETga6Oj0YshDAm-65" value="order food" style="swimlane;whiteSpace=wrap;html=1;" vertex="1" parent="1">
          <mxGeometry x="850" y="730" width="200" height="210" as="geometry" />
        </mxCell>
        <mxCell id="oMkmgtETga6Oj0YshDAm-66" value="select dealer&amp;nbsp;" style="rounded=0;whiteSpace=wrap;html=1;" vertex="1" parent="oMkmgtETga6Oj0YshDAm-65">
          <mxGeometry x="12" y="35" width="78" height="25" as="geometry" />
        </mxCell>
        <mxCell id="oMkmgtETga6Oj0YshDAm-67" value="Batch Info" style="rounded=0;whiteSpace=wrap;html=1;" vertex="1" parent="oMkmgtETga6Oj0YshDAm-65">
          <mxGeometry x="50" y="70" width="100" height="30" as="geometry" />
        </mxCell>
        <mxCell id="oMkmgtETga6Oj0YshDAm-68" value="quantity&amp;nbsp;" style="rounded=1;whiteSpace=wrap;html=1;" vertex="1" parent="oMkmgtETga6Oj0YshDAm-65">
          <mxGeometry x="50" y="110" width="100" height="30" as="geometry" />
        </mxCell>
        <mxCell id="oMkmgtETga6Oj0YshDAm-69" value="order" style="rounded=1;whiteSpace=wrap;html=1;fillColor=#d5e8d4;strokeColor=#82b366;" vertex="1" parent="oMkmgtETga6Oj0YshDAm-65">
          <mxGeometry x="80" y="170" width="80" height="20" as="geometry" />
        </mxCell>
        <mxCell id="oMkmgtETga6Oj0YshDAm-70" style="edgeStyle=orthogonalEdgeStyle;rounded=0;orthogonalLoop=1;jettySize=auto;html=1;exitX=0.5;exitY=1;exitDx=0;exitDy=0;entryX=0.546;entryY=-0.015;entryDx=0;entryDy=0;entryPerimeter=0;" edge="1" parent="1" source="oMkmgtETga6Oj0YshDAm-51" target="oMkmgtETga6Oj0YshDAm-65">
          <mxGeometry relative="1" as="geometry">
            <Array as="points">
              <mxPoint x="556" y="620" />
              <mxPoint x="959" y="620" />
            </Array>
          </mxGeometry>
        </mxCell>
        <mxCell id="oMkmgtETga6Oj0YshDAm-71" style="edgeStyle=orthogonalEdgeStyle;rounded=0;orthogonalLoop=1;jettySize=auto;html=1;exitX=1;exitY=0.5;exitDx=0;exitDy=0;entryX=0;entryY=0;entryDx=0;entryDy=0;" edge="1" parent="1" source="oMkmgtETga6Oj0YshDAm-11" target="oMkmgtETga6Oj0YshDAm-18">
          <mxGeometry relative="1" as="geometry">
            <Array as="points">
              <mxPoint x="-340" y="410" />
              <mxPoint x="-340" y="320" />
              <mxPoint x="180" y="320" />
            </Array>
          </mxGeometry>
        </mxCell>
        <mxCell id="oMkmgtETga6Oj0YshDAm-72" value="Accounts Details&amp;nbsp;" style="swimlane;whiteSpace=wrap;html=1;" vertex="1" parent="1">
          <mxGeometry x="300" y="100" width="410" height="200" as="geometry" />
        </mxCell>
        <mxCell id="oMkmgtETga6Oj0YshDAm-75" value="" style="rounded=0;whiteSpace=wrap;html=1;" vertex="1" parent="oMkmgtETga6Oj0YshDAm-72">
          <mxGeometry x="10.629999999999995" y="30" width="125" height="20" as="geometry" />
        </mxCell>
        <mxCell id="oMkmgtETga6Oj0YshDAm-76" value="" style="rounded=0;whiteSpace=wrap;html=1;" vertex="1" parent="oMkmgtETga6Oj0YshDAm-72">
          <mxGeometry x="10.629999999999995" y="50" width="125" height="20" as="geometry" />
        </mxCell>
        <mxCell id="oMkmgtETga6Oj0YshDAm-77" value="" style="rounded=0;whiteSpace=wrap;html=1;" vertex="1" parent="oMkmgtETga6Oj0YshDAm-72">
          <mxGeometry x="10.629999999999995" y="70" width="125" height="20" as="geometry" />
        </mxCell>
        <mxCell id="oMkmgtETga6Oj0YshDAm-78" value="" style="rounded=0;whiteSpace=wrap;html=1;" vertex="1" parent="oMkmgtETga6Oj0YshDAm-72">
          <mxGeometry x="10.629999999999995" y="90" width="125" height="20" as="geometry" />
        </mxCell>
        <mxCell id="oMkmgtETga6Oj0YshDAm-80" value="" style="endArrow=none;html=1;rounded=0;exitX=0.5;exitY=1;exitDx=0;exitDy=0;entryX=0.5;entryY=0;entryDx=0;entryDy=0;" edge="1" parent="oMkmgtETga6Oj0YshDAm-72" source="oMkmgtETga6Oj0YshDAm-78" target="oMkmgtETga6Oj0YshDAm-75">
          <mxGeometry width="50" height="50" relative="1" as="geometry">
            <mxPoint x="30" y="80" as="sourcePoint" />
            <mxPoint x="80" y="30" as="targetPoint" />
          </mxGeometry>
        </mxCell>
        <mxCell id="oMkmgtETga6Oj0YshDAm-81" value="" style="rounded=0;whiteSpace=wrap;html=1;" vertex="1" parent="oMkmgtETga6Oj0YshDAm-72">
          <mxGeometry x="135.63" y="30" width="125" height="20" as="geometry" />
        </mxCell>
        <mxCell id="oMkmgtETga6Oj0YshDAm-82" value="" style="rounded=0;whiteSpace=wrap;html=1;" vertex="1" parent="oMkmgtETga6Oj0YshDAm-72">
          <mxGeometry x="135.63" y="50" width="125" height="20" as="geometry" />
        </mxCell>
        <mxCell id="oMkmgtETga6Oj0YshDAm-83" value="" style="rounded=0;whiteSpace=wrap;html=1;" vertex="1" parent="oMkmgtETga6Oj0YshDAm-72">
          <mxGeometry x="135.63" y="70" width="125" height="20" as="geometry" />
        </mxCell>
        <mxCell id="oMkmgtETga6Oj0YshDAm-84" value="" style="rounded=0;whiteSpace=wrap;html=1;" vertex="1" parent="oMkmgtETga6Oj0YshDAm-72">
          <mxGeometry x="135.63" y="90" width="125" height="20" as="geometry" />
        </mxCell>
        <mxCell id="oMkmgtETga6Oj0YshDAm-85" value="" style="endArrow=none;html=1;rounded=0;exitX=0.5;exitY=1;exitDx=0;exitDy=0;entryX=0.5;entryY=0;entryDx=0;entryDy=0;" edge="1" parent="oMkmgtETga6Oj0YshDAm-72" source="oMkmgtETga6Oj0YshDAm-84" target="oMkmgtETga6Oj0YshDAm-81">
          <mxGeometry width="50" height="50" relative="1" as="geometry">
            <mxPoint x="155" y="80" as="sourcePoint" />
            <mxPoint x="205" y="30" as="targetPoint" />
          </mxGeometry>
        </mxCell>
        <mxCell id="oMkmgtETga6Oj0YshDAm-86" value="" style="rounded=0;whiteSpace=wrap;html=1;" vertex="1" parent="oMkmgtETga6Oj0YshDAm-72">
          <mxGeometry x="240" y="30" width="160" height="20" as="geometry" />
        </mxCell>
        <mxCell id="oMkmgtETga6Oj0YshDAm-87" value="" style="rounded=0;whiteSpace=wrap;html=1;" vertex="1" parent="oMkmgtETga6Oj0YshDAm-72">
          <mxGeometry x="240" y="50" width="160" height="20" as="geometry" />
        </mxCell>
        <mxCell id="oMkmgtETga6Oj0YshDAm-88" value="" style="rounded=0;whiteSpace=wrap;html=1;" vertex="1" parent="oMkmgtETga6Oj0YshDAm-72">
          <mxGeometry x="240" y="70" width="160" height="20" as="geometry" />
        </mxCell>
        <mxCell id="oMkmgtETga6Oj0YshDAm-89" value="" style="rounded=0;whiteSpace=wrap;html=1;" vertex="1" parent="oMkmgtETga6Oj0YshDAm-72">
          <mxGeometry x="240" y="90" width="160" height="20" as="geometry" />
        </mxCell>
        <mxCell id="oMkmgtETga6Oj0YshDAm-90" value="" style="endArrow=none;html=1;rounded=0;exitX=0.388;exitY=0.94;exitDx=0;exitDy=0;entryX=0.389;entryY=-0.012;entryDx=0;entryDy=0;entryPerimeter=0;exitPerimeter=0;" edge="1" parent="oMkmgtETga6Oj0YshDAm-72" source="oMkmgtETga6Oj0YshDAm-89" target="oMkmgtETga6Oj0YshDAm-86">
          <mxGeometry width="50" height="50" relative="1" as="geometry">
            <mxPoint x="259.37" y="80" as="sourcePoint" />
            <mxPoint x="309.37" y="30" as="targetPoint" />
          </mxGeometry>
        </mxCell>
        <mxCell id="oMkmgtETga6Oj0YshDAm-91" value="&lt;span style=&quot;font-size: 5px;&quot;&gt;&lt;sup&gt;-&lt;/sup&gt;&lt;/span&gt;" style="rounded=1;whiteSpace=wrap;html=1;fillColor=#d5e8d4;strokeColor=#82b366;" vertex="1" parent="oMkmgtETga6Oj0YshDAm-72">
          <mxGeometry x="310" y="35" width="20" height="10" as="geometry" />
        </mxCell>
        <mxCell id="oMkmgtETga6Oj0YshDAm-92" value="&lt;span style=&quot;font-size: 5px;&quot;&gt;&lt;sup&gt;+&lt;/sup&gt;&lt;/span&gt;" style="rounded=1;whiteSpace=wrap;html=1;fillColor=#d5e8d4;strokeColor=#82b366;" vertex="1" parent="oMkmgtETga6Oj0YshDAm-72">
          <mxGeometry x="340" y="35" width="20" height="10" as="geometry" />
        </mxCell>
        <mxCell id="oMkmgtETga6Oj0YshDAm-93" value="&lt;font style=&quot;font-size: 6px;&quot;&gt;&lt;sup&gt;Details&lt;/sup&gt;&lt;/font&gt;" style="rounded=1;whiteSpace=wrap;html=1;fillColor=#d5e8d4;strokeColor=#82b366;" vertex="1" parent="oMkmgtETga6Oj0YshDAm-72">
          <mxGeometry x="366" y="35" width="30" height="10" as="geometry" />
        </mxCell>
        <mxCell id="oMkmgtETga6Oj0YshDAm-95" value="&lt;span style=&quot;font-size: 5px;&quot;&gt;&lt;sup&gt;+&lt;/sup&gt;&lt;/span&gt;" style="rounded=1;whiteSpace=wrap;html=1;fillColor=#d5e8d4;strokeColor=#82b366;" vertex="1" parent="oMkmgtETga6Oj0YshDAm-72">
          <mxGeometry x="340" y="55" width="20" height="10" as="geometry" />
        </mxCell>
        <mxCell id="oMkmgtETga6Oj0YshDAm-94" value="&lt;span style=&quot;font-size: 5px;&quot;&gt;&lt;sup&gt;-&lt;/sup&gt;&lt;/span&gt;" style="rounded=1;whiteSpace=wrap;html=1;fillColor=#d5e8d4;strokeColor=#82b366;" vertex="1" parent="oMkmgtETga6Oj0YshDAm-72">
          <mxGeometry x="310" y="55" width="20" height="10" as="geometry" />
        </mxCell>
        <mxCell id="oMkmgtETga6Oj0YshDAm-96" value="&lt;font style=&quot;font-size: 6px;&quot;&gt;&lt;sup&gt;Details&lt;/sup&gt;&lt;/font&gt;" style="rounded=1;whiteSpace=wrap;html=1;fillColor=#d5e8d4;strokeColor=#82b366;" vertex="1" parent="oMkmgtETga6Oj0YshDAm-72">
          <mxGeometry x="366" y="55" width="30" height="10" as="geometry" />
        </mxCell>
        <mxCell id="oMkmgtETga6Oj0YshDAm-97" value="&lt;span style=&quot;font-size: 5px;&quot;&gt;&lt;sup&gt;-&lt;/sup&gt;&lt;/span&gt;" style="rounded=1;whiteSpace=wrap;html=1;fillColor=#d5e8d4;strokeColor=#82b366;" vertex="1" parent="oMkmgtETga6Oj0YshDAm-72">
          <mxGeometry x="310" y="75" width="20" height="10" as="geometry" />
        </mxCell>
        <mxCell id="oMkmgtETga6Oj0YshDAm-98" value="&lt;span style=&quot;font-size: 5px;&quot;&gt;&lt;sup&gt;+&lt;/sup&gt;&lt;/span&gt;" style="rounded=1;whiteSpace=wrap;html=1;fillColor=#d5e8d4;strokeColor=#82b366;" vertex="1" parent="oMkmgtETga6Oj0YshDAm-72">
          <mxGeometry x="340" y="75" width="20" height="10" as="geometry" />
        </mxCell>
        <mxCell id="oMkmgtETga6Oj0YshDAm-99" value="&lt;font style=&quot;font-size: 6px;&quot;&gt;&lt;sup&gt;Details&lt;/sup&gt;&lt;/font&gt;" style="rounded=1;whiteSpace=wrap;html=1;fillColor=#d5e8d4;strokeColor=#82b366;" vertex="1" parent="oMkmgtETga6Oj0YshDAm-72">
          <mxGeometry x="366" y="75" width="30" height="10" as="geometry" />
        </mxCell>
        <mxCell id="oMkmgtETga6Oj0YshDAm-100" value="&lt;span style=&quot;font-size: 5px;&quot;&gt;&lt;sup&gt;-&lt;/sup&gt;&lt;/span&gt;" style="rounded=1;whiteSpace=wrap;html=1;fillColor=#d5e8d4;strokeColor=#82b366;" vertex="1" parent="oMkmgtETga6Oj0YshDAm-72">
          <mxGeometry x="310" y="95" width="20" height="10" as="geometry" />
        </mxCell>
        <mxCell id="oMkmgtETga6Oj0YshDAm-101" value="&lt;span style=&quot;font-size: 5px;&quot;&gt;&lt;sup&gt;+&lt;/sup&gt;&lt;/span&gt;" style="rounded=1;whiteSpace=wrap;html=1;fillColor=#d5e8d4;strokeColor=#82b366;" vertex="1" parent="oMkmgtETga6Oj0YshDAm-72">
          <mxGeometry x="340" y="95" width="20" height="10" as="geometry" />
        </mxCell>
        <mxCell id="oMkmgtETga6Oj0YshDAm-102" value="&lt;font style=&quot;font-size: 6px;&quot;&gt;&lt;sup&gt;Details&lt;/sup&gt;&lt;/font&gt;" style="rounded=1;whiteSpace=wrap;html=1;fillColor=#d5e8d4;strokeColor=#82b366;" vertex="1" parent="oMkmgtETga6Oj0YshDAm-72">
          <mxGeometry x="366" y="95" width="30" height="10" as="geometry" />
        </mxCell>
        <mxCell id="oMkmgtETga6Oj0YshDAm-74" style="edgeStyle=orthogonalEdgeStyle;rounded=0;orthogonalLoop=1;jettySize=auto;html=1;exitX=0.5;exitY=0;exitDx=0;exitDy=0;entryX=0;entryY=0.5;entryDx=0;entryDy=0;" edge="1" parent="1" source="oMkmgtETga6Oj0YshDAm-10" target="oMkmgtETga6Oj0YshDAm-72">
          <mxGeometry relative="1" as="geometry" />
        </mxCell>
        <mxCell id="oMkmgtETga6Oj0YshDAm-104" value="add expenses&amp;nbsp;" style="swimlane;whiteSpace=wrap;html=1;" vertex="1" parent="1">
          <mxGeometry x="690" y="370" width="200" height="200" as="geometry" />
        </mxCell>
        <mxCell id="oMkmgtETga6Oj0YshDAm-110" value="expense form" style="rounded=0;whiteSpace=wrap;html=1;" vertex="1" parent="oMkmgtETga6Oj0YshDAm-104">
          <mxGeometry x="38" y="40" width="120" height="60" as="geometry" />
        </mxCell>
        <mxCell id="oMkmgtETga6Oj0YshDAm-111" value="add" style="rounded=1;whiteSpace=wrap;html=1;fillColor=#d5e8d4;strokeColor=#82b366;" vertex="1" parent="oMkmgtETga6Oj0YshDAm-104">
          <mxGeometry x="74" y="140" width="52" height="25" as="geometry" />
        </mxCell>
        <mxCell id="oMkmgtETga6Oj0YshDAm-105" value="add income&amp;nbsp;" style="swimlane;whiteSpace=wrap;html=1;" vertex="1" parent="1">
          <mxGeometry x="920" y="370" width="200" height="200" as="geometry" />
        </mxCell>
        <mxCell id="oMkmgtETga6Oj0YshDAm-112" value="add" style="rounded=1;whiteSpace=wrap;html=1;fillColor=#d5e8d4;strokeColor=#82b366;" vertex="1" parent="oMkmgtETga6Oj0YshDAm-105">
          <mxGeometry x="74" y="137.5" width="52" height="25" as="geometry" />
        </mxCell>
        <mxCell id="oMkmgtETga6Oj0YshDAm-114" value="income forms&amp;nbsp;" style="rounded=0;whiteSpace=wrap;html=1;" vertex="1" parent="oMkmgtETga6Oj0YshDAm-105">
          <mxGeometry x="40" y="40" width="120" height="60" as="geometry" />
        </mxCell>
        <mxCell id="oMkmgtETga6Oj0YshDAm-106" value="details&amp;nbsp;" style="swimlane;whiteSpace=wrap;html=1;" vertex="1" parent="1">
          <mxGeometry x="1160" y="370" width="200" height="200" as="geometry" />
        </mxCell>
        <mxCell id="oMkmgtETga6Oj0YshDAm-115" value="expenses details" style="rounded=0;whiteSpace=wrap;html=1;" vertex="1" parent="oMkmgtETga6Oj0YshDAm-106">
          <mxGeometry x="10" y="40" width="80" height="40" as="geometry" />
        </mxCell>
        <mxCell id="oMkmgtETga6Oj0YshDAm-116" value="income details" style="rounded=0;whiteSpace=wrap;html=1;" vertex="1" parent="oMkmgtETga6Oj0YshDAm-106">
          <mxGeometry x="110" y="40" width="80" height="40" as="geometry" />
        </mxCell>
        <mxCell id="oMkmgtETga6Oj0YshDAm-117" value="Profit or loses&amp;nbsp;" style="rounded=0;whiteSpace=wrap;html=1;" vertex="1" parent="oMkmgtETga6Oj0YshDAm-106">
          <mxGeometry x="40" y="95" width="110" height="35" as="geometry" />
        </mxCell>
        <mxCell id="oMkmgtETga6Oj0YshDAm-107" style="edgeStyle=orthogonalEdgeStyle;rounded=0;orthogonalLoop=1;jettySize=auto;html=1;exitX=0.5;exitY=1;exitDx=0;exitDy=0;" edge="1" parent="1" source="oMkmgtETga6Oj0YshDAm-100" target="oMkmgtETga6Oj0YshDAm-104">
          <mxGeometry relative="1" as="geometry" />
        </mxCell>
        <mxCell id="oMkmgtETga6Oj0YshDAm-108" style="edgeStyle=orthogonalEdgeStyle;rounded=0;orthogonalLoop=1;jettySize=auto;html=1;exitX=0.5;exitY=1;exitDx=0;exitDy=0;" edge="1" parent="1" source="oMkmgtETga6Oj0YshDAm-101">
          <mxGeometry relative="1" as="geometry">
            <mxPoint x="1020" y="370" as="targetPoint" />
            <Array as="points">
              <mxPoint x="650" y="250" />
              <mxPoint x="1020" y="250" />
            </Array>
          </mxGeometry>
        </mxCell>
        <mxCell id="oMkmgtETga6Oj0YshDAm-109" style="edgeStyle=orthogonalEdgeStyle;rounded=0;orthogonalLoop=1;jettySize=auto;html=1;exitX=1;exitY=0.5;exitDx=0;exitDy=0;entryX=0.533;entryY=-0.002;entryDx=0;entryDy=0;entryPerimeter=0;" edge="1" parent="1" source="oMkmgtETga6Oj0YshDAm-102" target="oMkmgtETga6Oj0YshDAm-106">
          <mxGeometry relative="1" as="geometry" />
        </mxCell>
        <mxCell id="oMkmgtETga6Oj0YshDAm-118" value="Assets" style="childLayout=tableLayout;recursiveResize=0;strokeColor=#98bf21;fillColor=#A7C942;shadow=1;" vertex="1" parent="1">
          <mxGeometry x="78" y="1270" width="402" height="222" as="geometry" />
        </mxCell>
        <mxCell id="oMkmgtETga6Oj0YshDAm-119" style="shape=tableRow;horizontal=0;startSize=0;swimlaneHead=0;swimlaneBody=0;top=0;left=0;bottom=0;right=0;dropTarget=0;collapsible=0;recursiveResize=0;expand=0;fontStyle=0;strokeColor=inherit;fillColor=#ffffff;" vertex="1" parent="oMkmgtETga6Oj0YshDAm-118">
          <mxGeometry width="402" height="48" as="geometry" />
        </mxCell>
        <mxCell id="oMkmgtETga6Oj0YshDAm-120" value="Title 1" style="connectable=0;recursiveResize=0;strokeColor=inherit;fillColor=#A7C942;align=center;fontStyle=1;fontColor=#FFFFFF;html=1;" vertex="1" parent="oMkmgtETga6Oj0YshDAm-119">
          <mxGeometry width="134" height="48" as="geometry">
            <mxRectangle width="134" height="48" as="alternateBounds" />
          </mxGeometry>
        </mxCell>
        <mxCell id="oMkmgtETga6Oj0YshDAm-121" value="Title 2" style="connectable=0;recursiveResize=0;strokeColor=inherit;fillColor=#A7C942;align=center;fontStyle=1;fontColor=#FFFFFF;html=1;" vertex="1" parent="oMkmgtETga6Oj0YshDAm-119">
          <mxGeometry x="134" width="134" height="48" as="geometry">
            <mxRectangle width="134" height="48" as="alternateBounds" />
          </mxGeometry>
        </mxCell>
        <mxCell id="oMkmgtETga6Oj0YshDAm-122" value="Title 3" style="connectable=0;recursiveResize=0;strokeColor=inherit;fillColor=#A7C942;align=center;fontStyle=1;fontColor=#FFFFFF;html=1;" vertex="1" parent="oMkmgtETga6Oj0YshDAm-119">
          <mxGeometry x="268" width="134" height="48" as="geometry">
            <mxRectangle width="134" height="48" as="alternateBounds" />
          </mxGeometry>
        </mxCell>
        <mxCell id="oMkmgtETga6Oj0YshDAm-123" value="" style="shape=tableRow;horizontal=0;startSize=0;swimlaneHead=0;swimlaneBody=0;top=0;left=0;bottom=0;right=0;dropTarget=0;collapsible=0;recursiveResize=0;expand=0;fontStyle=0;strokeColor=inherit;fillColor=#ffffff;" vertex="1" parent="oMkmgtETga6Oj0YshDAm-118">
          <mxGeometry y="48" width="402" height="46" as="geometry" />
        </mxCell>
        <mxCell id="oMkmgtETga6Oj0YshDAm-124" value="Value 1" style="connectable=0;recursiveResize=0;strokeColor=inherit;fillColor=inherit;align=center;whiteSpace=wrap;html=1;" vertex="1" parent="oMkmgtETga6Oj0YshDAm-123">
          <mxGeometry width="134" height="46" as="geometry">
            <mxRectangle width="134" height="46" as="alternateBounds" />
          </mxGeometry>
        </mxCell>
        <mxCell id="oMkmgtETga6Oj0YshDAm-125" value="Value 2" style="connectable=0;recursiveResize=0;strokeColor=inherit;fillColor=inherit;align=center;whiteSpace=wrap;html=1;" vertex="1" parent="oMkmgtETga6Oj0YshDAm-123">
          <mxGeometry x="134" width="134" height="46" as="geometry">
            <mxRectangle width="134" height="46" as="alternateBounds" />
          </mxGeometry>
        </mxCell>
        <mxCell id="oMkmgtETga6Oj0YshDAm-126" value="details" style="connectable=0;recursiveResize=0;strokeColor=inherit;fillColor=inherit;align=center;whiteSpace=wrap;html=1;" vertex="1" parent="oMkmgtETga6Oj0YshDAm-123">
          <mxGeometry x="268" width="134" height="46" as="geometry">
            <mxRectangle width="134" height="46" as="alternateBounds" />
          </mxGeometry>
        </mxCell>
        <mxCell id="oMkmgtETga6Oj0YshDAm-127" value="" style="shape=tableRow;horizontal=0;startSize=0;swimlaneHead=0;swimlaneBody=0;top=0;left=0;bottom=0;right=0;dropTarget=0;collapsible=0;recursiveResize=0;expand=0;fontStyle=1;strokeColor=inherit;fillColor=#EAF2D3;" vertex="1" parent="oMkmgtETga6Oj0YshDAm-118">
          <mxGeometry y="94" width="402" height="36" as="geometry" />
        </mxCell>
        <mxCell id="oMkmgtETga6Oj0YshDAm-128" value="Value 4" style="connectable=0;recursiveResize=0;strokeColor=inherit;fillColor=inherit;whiteSpace=wrap;html=1;" vertex="1" parent="oMkmgtETga6Oj0YshDAm-127">
          <mxGeometry width="134" height="36" as="geometry">
            <mxRectangle width="134" height="36" as="alternateBounds" />
          </mxGeometry>
        </mxCell>
        <mxCell id="oMkmgtETga6Oj0YshDAm-129" value="Value 5" style="connectable=0;recursiveResize=0;strokeColor=inherit;fillColor=inherit;whiteSpace=wrap;html=1;" vertex="1" parent="oMkmgtETga6Oj0YshDAm-127">
          <mxGeometry x="134" width="134" height="36" as="geometry">
            <mxRectangle width="134" height="36" as="alternateBounds" />
          </mxGeometry>
        </mxCell>
        <mxCell id="oMkmgtETga6Oj0YshDAm-130" value="details" style="connectable=0;recursiveResize=0;strokeColor=inherit;fillColor=inherit;whiteSpace=wrap;html=1;" vertex="1" parent="oMkmgtETga6Oj0YshDAm-127">
          <mxGeometry x="268" width="134" height="36" as="geometry">
            <mxRectangle width="134" height="36" as="alternateBounds" />
          </mxGeometry>
        </mxCell>
        <mxCell id="oMkmgtETga6Oj0YshDAm-131" value="" style="shape=tableRow;horizontal=0;startSize=0;swimlaneHead=0;swimlaneBody=0;top=0;left=0;bottom=0;right=0;dropTarget=0;collapsible=0;recursiveResize=0;expand=0;fontStyle=0;strokeColor=inherit;fillColor=#ffffff;" vertex="1" parent="oMkmgtETga6Oj0YshDAm-118">
          <mxGeometry y="130" width="402" height="48" as="geometry" />
        </mxCell>
        <mxCell id="oMkmgtETga6Oj0YshDAm-132" value="Value 7" style="connectable=0;recursiveResize=0;strokeColor=inherit;fillColor=inherit;fontStyle=0;align=center;whiteSpace=wrap;html=1;" vertex="1" parent="oMkmgtETga6Oj0YshDAm-131">
          <mxGeometry width="134" height="48" as="geometry">
            <mxRectangle width="134" height="48" as="alternateBounds" />
          </mxGeometry>
        </mxCell>
        <mxCell id="oMkmgtETga6Oj0YshDAm-133" value="Value 8" style="connectable=0;recursiveResize=0;strokeColor=inherit;fillColor=inherit;fontStyle=0;align=center;whiteSpace=wrap;html=1;" vertex="1" parent="oMkmgtETga6Oj0YshDAm-131">
          <mxGeometry x="134" width="134" height="48" as="geometry">
            <mxRectangle width="134" height="48" as="alternateBounds" />
          </mxGeometry>
        </mxCell>
        <mxCell id="oMkmgtETga6Oj0YshDAm-134" value="details" style="connectable=0;recursiveResize=0;strokeColor=inherit;fillColor=inherit;fontStyle=0;align=center;whiteSpace=wrap;html=1;" vertex="1" parent="oMkmgtETga6Oj0YshDAm-131">
          <mxGeometry x="268" width="134" height="48" as="geometry">
            <mxRectangle width="134" height="48" as="alternateBounds" />
          </mxGeometry>
        </mxCell>
        <mxCell id="oMkmgtETga6Oj0YshDAm-135" value="" style="shape=tableRow;horizontal=0;startSize=0;swimlaneHead=0;swimlaneBody=0;top=0;left=0;bottom=0;right=0;dropTarget=0;collapsible=0;recursiveResize=0;expand=0;fontStyle=1;strokeColor=inherit;fillColor=#EAF2D3;" vertex="1" parent="oMkmgtETga6Oj0YshDAm-118">
          <mxGeometry y="178" width="402" height="44" as="geometry" />
        </mxCell>
        <mxCell id="oMkmgtETga6Oj0YshDAm-136" value="Value 10" style="connectable=0;recursiveResize=0;strokeColor=inherit;fillColor=inherit;whiteSpace=wrap;html=1;" vertex="1" parent="oMkmgtETga6Oj0YshDAm-135">
          <mxGeometry width="134" height="44" as="geometry">
            <mxRectangle width="134" height="44" as="alternateBounds" />
          </mxGeometry>
        </mxCell>
        <mxCell id="oMkmgtETga6Oj0YshDAm-137" value="Value 11" style="connectable=0;recursiveResize=0;strokeColor=inherit;fillColor=inherit;whiteSpace=wrap;html=1;" vertex="1" parent="oMkmgtETga6Oj0YshDAm-135">
          <mxGeometry x="134" width="134" height="44" as="geometry">
            <mxRectangle width="134" height="44" as="alternateBounds" />
          </mxGeometry>
        </mxCell>
        <mxCell id="oMkmgtETga6Oj0YshDAm-138" value="details" style="connectable=0;recursiveResize=0;strokeColor=inherit;fillColor=inherit;whiteSpace=wrap;html=1;" vertex="1" parent="oMkmgtETga6Oj0YshDAm-135">
          <mxGeometry x="268" width="134" height="44" as="geometry">
            <mxRectangle width="134" height="44" as="alternateBounds" />
          </mxGeometry>
        </mxCell>
        <mxCell id="oMkmgtETga6Oj0YshDAm-139" value="Food Oder Lists&amp;nbsp;" style="swimlane;whiteSpace=wrap;html=1;" vertex="1" parent="1">
          <mxGeometry x="50" y="1200" width="490" height="360" as="geometry" />
        </mxCell>
        <mxCell id="oMkmgtETga6Oj0YshDAm-164" style="edgeStyle=orthogonalEdgeStyle;rounded=0;orthogonalLoop=1;jettySize=auto;html=1;exitX=0.5;exitY=1;exitDx=0;exitDy=0;entryX=0.5;entryY=0;entryDx=0;entryDy=0;" edge="1" parent="1" source="oMkmgtETga6Oj0YshDAm-13" target="oMkmgtETga6Oj0YshDAm-139">
          <mxGeometry relative="1" as="geometry">
            <Array as="points">
              <mxPoint x="-425" y="1110" />
              <mxPoint x="295" y="1110" />
            </Array>
          </mxGeometry>
        </mxCell>
        <mxCell id="oMkmgtETga6Oj0YshDAm-165" value="ফার্ম ফোর্স Dashboard" style="swimlane;whiteSpace=wrap;html=1;fillColor=#d5e8d4;strokeColor=#82b366;" vertex="1" parent="1">
          <mxGeometry x="1580" y="360" width="470" height="415" as="geometry" />
        </mxCell>
        <mxCell id="oMkmgtETga6Oj0YshDAm-166" value="Add farmer" style="rounded=0;whiteSpace=wrap;html=1;fillColor=#d5e8d4;strokeColor=#82b366;" vertex="1" parent="oMkmgtETga6Oj0YshDAm-165">
          <mxGeometry x="20" y="60" width="120" height="60" as="geometry" />
        </mxCell>
        <mxCell id="oMkmgtETga6Oj0YshDAm-167" value="Add Batch info" style="rounded=0;whiteSpace=wrap;html=1;fillColor=#d5e8d4;strokeColor=#82b366;" vertex="1" parent="oMkmgtETga6Oj0YshDAm-165">
          <mxGeometry x="168" y="60" width="120" height="60" as="geometry" />
        </mxCell>
        <mxCell id="oMkmgtETga6Oj0YshDAm-168" value="Farmer List" style="rounded=0;whiteSpace=wrap;html=1;fillColor=#d5e8d4;strokeColor=#82b366;" vertex="1" parent="oMkmgtETga6Oj0YshDAm-165">
          <mxGeometry x="330" y="60" width="120" height="60" as="geometry" />
        </mxCell>
        <mxCell id="oMkmgtETga6Oj0YshDAm-169" value="Batch list" style="rounded=0;whiteSpace=wrap;html=1;fillColor=#d5e8d4;strokeColor=#82b366;" vertex="1" parent="oMkmgtETga6Oj0YshDAm-165">
          <mxGeometry x="20" y="165" width="120" height="60" as="geometry" />
        </mxCell>
        <mxCell id="oMkmgtETga6Oj0YshDAm-376" value="Order list" style="rounded=0;whiteSpace=wrap;html=1;fillColor=#d5e8d4;strokeColor=#82b366;" vertex="1" parent="oMkmgtETga6Oj0YshDAm-165">
          <mxGeometry x="250" y="160" width="120" height="60" as="geometry" />
        </mxCell>
        <mxCell id="oMkmgtETga6Oj0YshDAm-170" value="Registration form" style="swimlane;whiteSpace=wrap;html=1;fillColor=#f8cecc;strokeColor=#b85450;" vertex="1" parent="1">
          <mxGeometry x="1660" y="1000" width="200" height="200" as="geometry" />
        </mxCell>
        <mxCell id="oMkmgtETga6Oj0YshDAm-172" value="Info" style="rounded=0;whiteSpace=wrap;html=1;" vertex="1" parent="oMkmgtETga6Oj0YshDAm-170">
          <mxGeometry x="40" y="70" width="120" height="60" as="geometry" />
        </mxCell>
        <mxCell id="oMkmgtETga6Oj0YshDAm-171" style="edgeStyle=orthogonalEdgeStyle;rounded=0;orthogonalLoop=1;jettySize=auto;html=1;exitX=0;exitY=0.5;exitDx=0;exitDy=0;entryX=0;entryY=0.5;entryDx=0;entryDy=0;" edge="1" parent="1" source="oMkmgtETga6Oj0YshDAm-166" target="oMkmgtETga6Oj0YshDAm-170">
          <mxGeometry relative="1" as="geometry">
            <Array as="points">
              <mxPoint x="1540" y="450" />
              <mxPoint x="1540" y="1100" />
            </Array>
          </mxGeometry>
        </mxCell>
        <mxCell id="oMkmgtETga6Oj0YshDAm-173" style="edgeStyle=orthogonalEdgeStyle;rounded=0;orthogonalLoop=1;jettySize=auto;html=1;entryX=0.5;entryY=1;entryDx=0;entryDy=0;" edge="1" parent="1" source="oMkmgtETga6Oj0YshDAm-167" target="oMkmgtETga6Oj0YshDAm-15">
          <mxGeometry relative="1" as="geometry">
            <Array as="points">
              <mxPoint x="1808" y="970" />
              <mxPoint x="50" y="970" />
            </Array>
          </mxGeometry>
        </mxCell>
        <mxCell id="oMkmgtETga6Oj0YshDAm-174" style="edgeStyle=orthogonalEdgeStyle;rounded=0;orthogonalLoop=1;jettySize=auto;html=1;entryX=0.5;entryY=0;entryDx=0;entryDy=0;" edge="1" parent="1" source="oMkmgtETga6Oj0YshDAm-169" target="oMkmgtETga6Oj0YshDAm-18">
          <mxGeometry relative="1" as="geometry">
            <Array as="points">
              <mxPoint x="1500" y="555" />
              <mxPoint x="1500" y="310" />
              <mxPoint x="393" y="310" />
            </Array>
          </mxGeometry>
        </mxCell>
        <mxCell id="oMkmgtETga6Oj0YshDAm-175" value="Assets" style="childLayout=tableLayout;recursiveResize=0;strokeColor=#98bf21;fillColor=#A7C942;shadow=1;" vertex="1" parent="1">
          <mxGeometry x="2040" y="1290" width="280" height="160" as="geometry" />
        </mxCell>
        <mxCell id="oMkmgtETga6Oj0YshDAm-176" style="shape=tableRow;horizontal=0;startSize=0;swimlaneHead=0;swimlaneBody=0;top=0;left=0;bottom=0;right=0;dropTarget=0;collapsible=0;recursiveResize=0;expand=0;fontStyle=0;strokeColor=inherit;fillColor=#ffffff;" vertex="1" parent="oMkmgtETga6Oj0YshDAm-175">
          <mxGeometry width="280" height="33" as="geometry" />
        </mxCell>
        <mxCell id="oMkmgtETga6Oj0YshDAm-177" value="Title 1" style="connectable=0;recursiveResize=0;strokeColor=inherit;fillColor=#A7C942;align=center;fontStyle=1;fontColor=#FFFFFF;html=1;" vertex="1" parent="oMkmgtETga6Oj0YshDAm-176">
          <mxGeometry width="93" height="33" as="geometry">
            <mxRectangle width="93" height="33" as="alternateBounds" />
          </mxGeometry>
        </mxCell>
        <mxCell id="oMkmgtETga6Oj0YshDAm-178" value="Title 2" style="connectable=0;recursiveResize=0;strokeColor=inherit;fillColor=#A7C942;align=center;fontStyle=1;fontColor=#FFFFFF;html=1;" vertex="1" parent="oMkmgtETga6Oj0YshDAm-176">
          <mxGeometry x="93" width="94" height="33" as="geometry">
            <mxRectangle width="94" height="33" as="alternateBounds" />
          </mxGeometry>
        </mxCell>
        <mxCell id="oMkmgtETga6Oj0YshDAm-179" value="Title 3" style="connectable=0;recursiveResize=0;strokeColor=inherit;fillColor=#A7C942;align=center;fontStyle=1;fontColor=#FFFFFF;html=1;" vertex="1" parent="oMkmgtETga6Oj0YshDAm-176">
          <mxGeometry x="187" width="93" height="33" as="geometry">
            <mxRectangle width="93" height="33" as="alternateBounds" />
          </mxGeometry>
        </mxCell>
        <mxCell id="oMkmgtETga6Oj0YshDAm-180" value="" style="shape=tableRow;horizontal=0;startSize=0;swimlaneHead=0;swimlaneBody=0;top=0;left=0;bottom=0;right=0;dropTarget=0;collapsible=0;recursiveResize=0;expand=0;fontStyle=0;strokeColor=inherit;fillColor=#ffffff;" vertex="1" parent="oMkmgtETga6Oj0YshDAm-175">
          <mxGeometry y="33" width="280" height="32" as="geometry" />
        </mxCell>
        <mxCell id="oMkmgtETga6Oj0YshDAm-181" value="Value 1" style="connectable=0;recursiveResize=0;strokeColor=inherit;fillColor=inherit;align=center;whiteSpace=wrap;html=1;" vertex="1" parent="oMkmgtETga6Oj0YshDAm-180">
          <mxGeometry width="93" height="32" as="geometry">
            <mxRectangle width="93" height="32" as="alternateBounds" />
          </mxGeometry>
        </mxCell>
        <mxCell id="oMkmgtETga6Oj0YshDAm-182" value="Value 2" style="connectable=0;recursiveResize=0;strokeColor=inherit;fillColor=inherit;align=center;whiteSpace=wrap;html=1;" vertex="1" parent="oMkmgtETga6Oj0YshDAm-180">
          <mxGeometry x="93" width="94" height="32" as="geometry">
            <mxRectangle width="94" height="32" as="alternateBounds" />
          </mxGeometry>
        </mxCell>
        <mxCell id="oMkmgtETga6Oj0YshDAm-183" value="Batch info" style="connectable=0;recursiveResize=0;strokeColor=inherit;fillColor=inherit;align=center;whiteSpace=wrap;html=1;" vertex="1" parent="oMkmgtETga6Oj0YshDAm-180">
          <mxGeometry x="187" width="93" height="32" as="geometry">
            <mxRectangle width="93" height="32" as="alternateBounds" />
          </mxGeometry>
        </mxCell>
        <mxCell id="oMkmgtETga6Oj0YshDAm-184" value="" style="shape=tableRow;horizontal=0;startSize=0;swimlaneHead=0;swimlaneBody=0;top=0;left=0;bottom=0;right=0;dropTarget=0;collapsible=0;recursiveResize=0;expand=0;fontStyle=1;strokeColor=inherit;fillColor=#EAF2D3;" vertex="1" parent="oMkmgtETga6Oj0YshDAm-175">
          <mxGeometry y="65" width="280" height="31" as="geometry" />
        </mxCell>
        <mxCell id="oMkmgtETga6Oj0YshDAm-185" value="Value 4" style="connectable=0;recursiveResize=0;strokeColor=inherit;fillColor=inherit;whiteSpace=wrap;html=1;" vertex="1" parent="oMkmgtETga6Oj0YshDAm-184">
          <mxGeometry width="93" height="31" as="geometry">
            <mxRectangle width="93" height="31" as="alternateBounds" />
          </mxGeometry>
        </mxCell>
        <mxCell id="oMkmgtETga6Oj0YshDAm-186" value="Value 5" style="connectable=0;recursiveResize=0;strokeColor=inherit;fillColor=inherit;whiteSpace=wrap;html=1;" vertex="1" parent="oMkmgtETga6Oj0YshDAm-184">
          <mxGeometry x="93" width="94" height="31" as="geometry">
            <mxRectangle width="94" height="31" as="alternateBounds" />
          </mxGeometry>
        </mxCell>
        <mxCell id="oMkmgtETga6Oj0YshDAm-187" value="Batch Info" style="connectable=0;recursiveResize=0;strokeColor=inherit;fillColor=inherit;whiteSpace=wrap;html=1;" vertex="1" parent="oMkmgtETga6Oj0YshDAm-184">
          <mxGeometry x="187" width="93" height="31" as="geometry">
            <mxRectangle width="93" height="31" as="alternateBounds" />
          </mxGeometry>
        </mxCell>
        <mxCell id="oMkmgtETga6Oj0YshDAm-188" value="" style="shape=tableRow;horizontal=0;startSize=0;swimlaneHead=0;swimlaneBody=0;top=0;left=0;bottom=0;right=0;dropTarget=0;collapsible=0;recursiveResize=0;expand=0;fontStyle=0;strokeColor=inherit;fillColor=#ffffff;" vertex="1" parent="oMkmgtETga6Oj0YshDAm-175">
          <mxGeometry y="96" width="280" height="33" as="geometry" />
        </mxCell>
        <mxCell id="oMkmgtETga6Oj0YshDAm-189" value="Value 7" style="connectable=0;recursiveResize=0;strokeColor=inherit;fillColor=inherit;fontStyle=0;align=center;whiteSpace=wrap;html=1;" vertex="1" parent="oMkmgtETga6Oj0YshDAm-188">
          <mxGeometry width="93" height="33" as="geometry">
            <mxRectangle width="93" height="33" as="alternateBounds" />
          </mxGeometry>
        </mxCell>
        <mxCell id="oMkmgtETga6Oj0YshDAm-190" value="Value 8" style="connectable=0;recursiveResize=0;strokeColor=inherit;fillColor=inherit;fontStyle=0;align=center;whiteSpace=wrap;html=1;" vertex="1" parent="oMkmgtETga6Oj0YshDAm-188">
          <mxGeometry x="93" width="94" height="33" as="geometry">
            <mxRectangle width="94" height="33" as="alternateBounds" />
          </mxGeometry>
        </mxCell>
        <mxCell id="oMkmgtETga6Oj0YshDAm-191" value="Batch Info" style="connectable=0;recursiveResize=0;strokeColor=inherit;fillColor=inherit;fontStyle=0;align=center;whiteSpace=wrap;html=1;" vertex="1" parent="oMkmgtETga6Oj0YshDAm-188">
          <mxGeometry x="187" width="93" height="33" as="geometry">
            <mxRectangle width="93" height="33" as="alternateBounds" />
          </mxGeometry>
        </mxCell>
        <mxCell id="oMkmgtETga6Oj0YshDAm-192" value="" style="shape=tableRow;horizontal=0;startSize=0;swimlaneHead=0;swimlaneBody=0;top=0;left=0;bottom=0;right=0;dropTarget=0;collapsible=0;recursiveResize=0;expand=0;fontStyle=1;strokeColor=inherit;fillColor=#EAF2D3;" vertex="1" parent="oMkmgtETga6Oj0YshDAm-175">
          <mxGeometry y="129" width="280" height="31" as="geometry" />
        </mxCell>
        <mxCell id="oMkmgtETga6Oj0YshDAm-193" value="Value 10" style="connectable=0;recursiveResize=0;strokeColor=inherit;fillColor=inherit;whiteSpace=wrap;html=1;" vertex="1" parent="oMkmgtETga6Oj0YshDAm-192">
          <mxGeometry width="93" height="31" as="geometry">
            <mxRectangle width="93" height="31" as="alternateBounds" />
          </mxGeometry>
        </mxCell>
        <mxCell id="oMkmgtETga6Oj0YshDAm-194" value="Value 11" style="connectable=0;recursiveResize=0;strokeColor=inherit;fillColor=inherit;whiteSpace=wrap;html=1;" vertex="1" parent="oMkmgtETga6Oj0YshDAm-192">
          <mxGeometry x="93" width="94" height="31" as="geometry">
            <mxRectangle width="94" height="31" as="alternateBounds" />
          </mxGeometry>
        </mxCell>
        <mxCell id="oMkmgtETga6Oj0YshDAm-195" value="Batch Info" style="connectable=0;recursiveResize=0;strokeColor=inherit;fillColor=inherit;whiteSpace=wrap;html=1;" vertex="1" parent="oMkmgtETga6Oj0YshDAm-192">
          <mxGeometry x="187" width="93" height="31" as="geometry">
            <mxRectangle width="93" height="31" as="alternateBounds" />
          </mxGeometry>
        </mxCell>
        <mxCell id="oMkmgtETga6Oj0YshDAm-197" value="Farmers lists" style="swimlane;whiteSpace=wrap;html=1;" vertex="1" parent="1">
          <mxGeometry x="2030" y="1250" width="300" height="220" as="geometry" />
        </mxCell>
        <mxCell id="oMkmgtETga6Oj0YshDAm-198" style="edgeStyle=orthogonalEdgeStyle;rounded=0;orthogonalLoop=1;jettySize=auto;html=1;entryX=0.5;entryY=0;entryDx=0;entryDy=0;" edge="1" parent="1" source="oMkmgtETga6Oj0YshDAm-168" target="oMkmgtETga6Oj0YshDAm-197">
          <mxGeometry relative="1" as="geometry" />
        </mxCell>
        <mxCell id="oMkmgtETga6Oj0YshDAm-201" style="edgeStyle=orthogonalEdgeStyle;rounded=0;orthogonalLoop=1;jettySize=auto;html=1;exitX=1;exitY=0.5;exitDx=0;exitDy=0;entryX=0.75;entryY=1;entryDx=0;entryDy=0;" edge="1" parent="1" source="oMkmgtETga6Oj0YshDAm-180" target="oMkmgtETga6Oj0YshDAm-18">
          <mxGeometry relative="1" as="geometry">
            <Array as="points">
              <mxPoint x="2340" y="1339" />
              <mxPoint x="2340" y="960" />
              <mxPoint x="499" y="960" />
            </Array>
          </mxGeometry>
        </mxCell>
        <mxCell id="oMkmgtETga6Oj0YshDAm-203" value="Doctor" style="swimlane;whiteSpace=wrap;html=1;fillColor=#f8cecc;strokeColor=#b85450;" vertex="1" parent="1">
          <mxGeometry x="2590" y="570" width="530" height="520" as="geometry" />
        </mxCell>
        <mxCell id="oMkmgtETga6Oj0YshDAm-204" value="New Request list" style="rounded=0;whiteSpace=wrap;html=1;" vertex="1" parent="oMkmgtETga6Oj0YshDAm-203">
          <mxGeometry x="50" y="70" width="200" height="90" as="geometry" />
        </mxCell>
        <mxCell id="oMkmgtETga6Oj0YshDAm-205" value="Prev Prescription&amp;nbsp;" style="rounded=0;whiteSpace=wrap;html=1;" vertex="1" parent="oMkmgtETga6Oj0YshDAm-203">
          <mxGeometry x="300" y="70" width="190" height="90" as="geometry" />
        </mxCell>
        <mxCell id="oMkmgtETga6Oj0YshDAm-256" style="edgeStyle=orthogonalEdgeStyle;rounded=0;orthogonalLoop=1;jettySize=auto;html=1;exitX=0.5;exitY=1;exitDx=0;exitDy=0;entryX=0;entryY=0.5;entryDx=0;entryDy=0;" edge="1" parent="1" source="oMkmgtETga6Oj0YshDAm-206" target="oMkmgtETga6Oj0YshDAm-253">
          <mxGeometry relative="1" as="geometry" />
        </mxCell>
        <mxCell id="oMkmgtETga6Oj0YshDAm-206" value="New Request&amp;nbsp; Table" style="swimlane;whiteSpace=wrap;html=1;" vertex="1" parent="1">
          <mxGeometry x="2610" y="1230" width="320" height="310" as="geometry" />
        </mxCell>
        <mxCell id="oMkmgtETga6Oj0YshDAm-207" value="Assets" style="childLayout=tableLayout;recursiveResize=0;strokeColor=#98bf21;fillColor=#A7C942;shadow=1;" vertex="1" parent="oMkmgtETga6Oj0YshDAm-206">
          <mxGeometry x="20" y="61" width="280" height="160" as="geometry" />
        </mxCell>
        <mxCell id="oMkmgtETga6Oj0YshDAm-208" style="shape=tableRow;horizontal=0;startSize=0;swimlaneHead=0;swimlaneBody=0;top=0;left=0;bottom=0;right=0;dropTarget=0;collapsible=0;recursiveResize=0;expand=0;fontStyle=0;strokeColor=inherit;fillColor=#ffffff;" vertex="1" parent="oMkmgtETga6Oj0YshDAm-207">
          <mxGeometry width="280" height="33" as="geometry" />
        </mxCell>
        <mxCell id="oMkmgtETga6Oj0YshDAm-209" value="Title 1" style="connectable=0;recursiveResize=0;strokeColor=inherit;fillColor=#A7C942;align=center;fontStyle=1;fontColor=#FFFFFF;html=1;" vertex="1" parent="oMkmgtETga6Oj0YshDAm-208">
          <mxGeometry width="93" height="33" as="geometry">
            <mxRectangle width="93" height="33" as="alternateBounds" />
          </mxGeometry>
        </mxCell>
        <mxCell id="oMkmgtETga6Oj0YshDAm-210" value="Title 2" style="connectable=0;recursiveResize=0;strokeColor=inherit;fillColor=#A7C942;align=center;fontStyle=1;fontColor=#FFFFFF;html=1;" vertex="1" parent="oMkmgtETga6Oj0YshDAm-208">
          <mxGeometry x="93" width="94" height="33" as="geometry">
            <mxRectangle width="94" height="33" as="alternateBounds" />
          </mxGeometry>
        </mxCell>
        <mxCell id="oMkmgtETga6Oj0YshDAm-211" value="Title 3" style="connectable=0;recursiveResize=0;strokeColor=inherit;fillColor=#A7C942;align=center;fontStyle=1;fontColor=#FFFFFF;html=1;" vertex="1" parent="oMkmgtETga6Oj0YshDAm-208">
          <mxGeometry x="187" width="93" height="33" as="geometry">
            <mxRectangle width="93" height="33" as="alternateBounds" />
          </mxGeometry>
        </mxCell>
        <mxCell id="oMkmgtETga6Oj0YshDAm-212" value="" style="shape=tableRow;horizontal=0;startSize=0;swimlaneHead=0;swimlaneBody=0;top=0;left=0;bottom=0;right=0;dropTarget=0;collapsible=0;recursiveResize=0;expand=0;fontStyle=0;strokeColor=inherit;fillColor=#ffffff;" vertex="1" parent="oMkmgtETga6Oj0YshDAm-207">
          <mxGeometry y="33" width="280" height="32" as="geometry" />
        </mxCell>
        <mxCell id="oMkmgtETga6Oj0YshDAm-213" value="Value 1" style="connectable=0;recursiveResize=0;strokeColor=inherit;fillColor=inherit;align=center;whiteSpace=wrap;html=1;" vertex="1" parent="oMkmgtETga6Oj0YshDAm-212">
          <mxGeometry width="93" height="32" as="geometry">
            <mxRectangle width="93" height="32" as="alternateBounds" />
          </mxGeometry>
        </mxCell>
        <mxCell id="oMkmgtETga6Oj0YshDAm-214" value="Value 2" style="connectable=0;recursiveResize=0;strokeColor=inherit;fillColor=inherit;align=center;whiteSpace=wrap;html=1;" vertex="1" parent="oMkmgtETga6Oj0YshDAm-212">
          <mxGeometry x="93" width="94" height="32" as="geometry">
            <mxRectangle width="94" height="32" as="alternateBounds" />
          </mxGeometry>
        </mxCell>
        <mxCell id="oMkmgtETga6Oj0YshDAm-215" value="prescription&amp;nbsp;" style="connectable=0;recursiveResize=0;strokeColor=#b85450;fillColor=#f8cecc;align=center;whiteSpace=wrap;html=1;" vertex="1" parent="oMkmgtETga6Oj0YshDAm-212">
          <mxGeometry x="187" width="93" height="32" as="geometry">
            <mxRectangle width="93" height="32" as="alternateBounds" />
          </mxGeometry>
        </mxCell>
        <mxCell id="oMkmgtETga6Oj0YshDAm-216" value="" style="shape=tableRow;horizontal=0;startSize=0;swimlaneHead=0;swimlaneBody=0;top=0;left=0;bottom=0;right=0;dropTarget=0;collapsible=0;recursiveResize=0;expand=0;fontStyle=1;strokeColor=inherit;fillColor=#EAF2D3;" vertex="1" parent="oMkmgtETga6Oj0YshDAm-207">
          <mxGeometry y="65" width="280" height="31" as="geometry" />
        </mxCell>
        <mxCell id="oMkmgtETga6Oj0YshDAm-217" value="Value 4" style="connectable=0;recursiveResize=0;strokeColor=inherit;fillColor=inherit;whiteSpace=wrap;html=1;" vertex="1" parent="oMkmgtETga6Oj0YshDAm-216">
          <mxGeometry width="93" height="31" as="geometry">
            <mxRectangle width="93" height="31" as="alternateBounds" />
          </mxGeometry>
        </mxCell>
        <mxCell id="oMkmgtETga6Oj0YshDAm-218" value="Value 5" style="connectable=0;recursiveResize=0;strokeColor=inherit;fillColor=inherit;whiteSpace=wrap;html=1;" vertex="1" parent="oMkmgtETga6Oj0YshDAm-216">
          <mxGeometry x="93" width="94" height="31" as="geometry">
            <mxRectangle width="94" height="31" as="alternateBounds" />
          </mxGeometry>
        </mxCell>
        <mxCell id="oMkmgtETga6Oj0YshDAm-219" value="prescription" style="connectable=0;recursiveResize=0;strokeColor=#b85450;fillColor=#f8cecc;whiteSpace=wrap;html=1;" vertex="1" parent="oMkmgtETga6Oj0YshDAm-216">
          <mxGeometry x="187" width="93" height="31" as="geometry">
            <mxRectangle width="93" height="31" as="alternateBounds" />
          </mxGeometry>
        </mxCell>
        <mxCell id="oMkmgtETga6Oj0YshDAm-220" value="" style="shape=tableRow;horizontal=0;startSize=0;swimlaneHead=0;swimlaneBody=0;top=0;left=0;bottom=0;right=0;dropTarget=0;collapsible=0;recursiveResize=0;expand=0;fontStyle=0;strokeColor=inherit;fillColor=#ffffff;" vertex="1" parent="oMkmgtETga6Oj0YshDAm-207">
          <mxGeometry y="96" width="280" height="33" as="geometry" />
        </mxCell>
        <mxCell id="oMkmgtETga6Oj0YshDAm-221" value="Value 7" style="connectable=0;recursiveResize=0;strokeColor=inherit;fillColor=inherit;fontStyle=0;align=center;whiteSpace=wrap;html=1;" vertex="1" parent="oMkmgtETga6Oj0YshDAm-220">
          <mxGeometry width="93" height="33" as="geometry">
            <mxRectangle width="93" height="33" as="alternateBounds" />
          </mxGeometry>
        </mxCell>
        <mxCell id="oMkmgtETga6Oj0YshDAm-222" value="Value 8" style="connectable=0;recursiveResize=0;strokeColor=inherit;fillColor=inherit;fontStyle=0;align=center;whiteSpace=wrap;html=1;" vertex="1" parent="oMkmgtETga6Oj0YshDAm-220">
          <mxGeometry x="93" width="94" height="33" as="geometry">
            <mxRectangle width="94" height="33" as="alternateBounds" />
          </mxGeometry>
        </mxCell>
        <mxCell id="oMkmgtETga6Oj0YshDAm-223" value="prescription" style="connectable=0;recursiveResize=0;strokeColor=#b85450;fillColor=#f8cecc;fontStyle=0;align=center;whiteSpace=wrap;html=1;" vertex="1" parent="oMkmgtETga6Oj0YshDAm-220">
          <mxGeometry x="187" width="93" height="33" as="geometry">
            <mxRectangle width="93" height="33" as="alternateBounds" />
          </mxGeometry>
        </mxCell>
        <mxCell id="oMkmgtETga6Oj0YshDAm-224" value="" style="shape=tableRow;horizontal=0;startSize=0;swimlaneHead=0;swimlaneBody=0;top=0;left=0;bottom=0;right=0;dropTarget=0;collapsible=0;recursiveResize=0;expand=0;fontStyle=1;strokeColor=inherit;fillColor=#EAF2D3;" vertex="1" parent="oMkmgtETga6Oj0YshDAm-207">
          <mxGeometry y="129" width="280" height="31" as="geometry" />
        </mxCell>
        <mxCell id="oMkmgtETga6Oj0YshDAm-225" value="Value 10" style="connectable=0;recursiveResize=0;strokeColor=inherit;fillColor=inherit;whiteSpace=wrap;html=1;" vertex="1" parent="oMkmgtETga6Oj0YshDAm-224">
          <mxGeometry width="93" height="31" as="geometry">
            <mxRectangle width="93" height="31" as="alternateBounds" />
          </mxGeometry>
        </mxCell>
        <mxCell id="oMkmgtETga6Oj0YshDAm-226" value="Value 11" style="connectable=0;recursiveResize=0;strokeColor=inherit;fillColor=inherit;whiteSpace=wrap;html=1;" vertex="1" parent="oMkmgtETga6Oj0YshDAm-224">
          <mxGeometry x="93" width="94" height="31" as="geometry">
            <mxRectangle width="94" height="31" as="alternateBounds" />
          </mxGeometry>
        </mxCell>
        <mxCell id="oMkmgtETga6Oj0YshDAm-227" value="prescription" style="connectable=0;recursiveResize=0;strokeColor=#b85450;fillColor=#f8cecc;whiteSpace=wrap;html=1;" vertex="1" parent="oMkmgtETga6Oj0YshDAm-224">
          <mxGeometry x="187" width="93" height="31" as="geometry">
            <mxRectangle width="93" height="31" as="alternateBounds" />
          </mxGeometry>
        </mxCell>
        <mxCell id="oMkmgtETga6Oj0YshDAm-259" style="edgeStyle=orthogonalEdgeStyle;rounded=0;orthogonalLoop=1;jettySize=auto;html=1;exitX=0.5;exitY=1;exitDx=0;exitDy=0;entryX=1;entryY=0.5;entryDx=0;entryDy=0;" edge="1" parent="1" source="oMkmgtETga6Oj0YshDAm-228" target="oMkmgtETga6Oj0YshDAm-257">
          <mxGeometry relative="1" as="geometry">
            <Array as="points">
              <mxPoint x="3170" y="1600" />
              <mxPoint x="1920" y="1600" />
              <mxPoint x="1920" y="840" />
            </Array>
          </mxGeometry>
        </mxCell>
        <mxCell id="oMkmgtETga6Oj0YshDAm-228" value="Prev request list" style="swimlane;whiteSpace=wrap;html=1;startSize=23;" vertex="1" parent="1">
          <mxGeometry x="3010" y="1230" width="320" height="305" as="geometry" />
        </mxCell>
        <mxCell id="oMkmgtETga6Oj0YshDAm-229" value="Assets" style="childLayout=tableLayout;recursiveResize=0;strokeColor=#98bf21;fillColor=#A7C942;shadow=1;" vertex="1" parent="oMkmgtETga6Oj0YshDAm-228">
          <mxGeometry x="20" y="61" width="280" height="160" as="geometry" />
        </mxCell>
        <mxCell id="oMkmgtETga6Oj0YshDAm-230" style="shape=tableRow;horizontal=0;startSize=0;swimlaneHead=0;swimlaneBody=0;top=0;left=0;bottom=0;right=0;dropTarget=0;collapsible=0;recursiveResize=0;expand=0;fontStyle=0;strokeColor=inherit;fillColor=#ffffff;" vertex="1" parent="oMkmgtETga6Oj0YshDAm-229">
          <mxGeometry width="280" height="33" as="geometry" />
        </mxCell>
        <mxCell id="oMkmgtETga6Oj0YshDAm-231" value="Title 1" style="connectable=0;recursiveResize=0;strokeColor=inherit;fillColor=#A7C942;align=center;fontStyle=1;fontColor=#FFFFFF;html=1;" vertex="1" parent="oMkmgtETga6Oj0YshDAm-230">
          <mxGeometry width="93" height="33" as="geometry">
            <mxRectangle width="93" height="33" as="alternateBounds" />
          </mxGeometry>
        </mxCell>
        <mxCell id="oMkmgtETga6Oj0YshDAm-232" value="Title 2" style="connectable=0;recursiveResize=0;strokeColor=inherit;fillColor=#A7C942;align=center;fontStyle=1;fontColor=#FFFFFF;html=1;" vertex="1" parent="oMkmgtETga6Oj0YshDAm-230">
          <mxGeometry x="93" width="94" height="33" as="geometry">
            <mxRectangle width="94" height="33" as="alternateBounds" />
          </mxGeometry>
        </mxCell>
        <mxCell id="oMkmgtETga6Oj0YshDAm-233" value="Title 3" style="connectable=0;recursiveResize=0;strokeColor=inherit;fillColor=#A7C942;align=center;fontStyle=1;fontColor=#FFFFFF;html=1;" vertex="1" parent="oMkmgtETga6Oj0YshDAm-230">
          <mxGeometry x="187" width="93" height="33" as="geometry">
            <mxRectangle width="93" height="33" as="alternateBounds" />
          </mxGeometry>
        </mxCell>
        <mxCell id="oMkmgtETga6Oj0YshDAm-234" value="" style="shape=tableRow;horizontal=0;startSize=0;swimlaneHead=0;swimlaneBody=0;top=0;left=0;bottom=0;right=0;dropTarget=0;collapsible=0;recursiveResize=0;expand=0;fontStyle=0;strokeColor=inherit;fillColor=#ffffff;" vertex="1" parent="oMkmgtETga6Oj0YshDAm-229">
          <mxGeometry y="33" width="280" height="32" as="geometry" />
        </mxCell>
        <mxCell id="oMkmgtETga6Oj0YshDAm-235" value="Value 1" style="connectable=0;recursiveResize=0;strokeColor=inherit;fillColor=inherit;align=center;whiteSpace=wrap;html=1;" vertex="1" parent="oMkmgtETga6Oj0YshDAm-234">
          <mxGeometry width="93" height="32" as="geometry">
            <mxRectangle width="93" height="32" as="alternateBounds" />
          </mxGeometry>
        </mxCell>
        <mxCell id="oMkmgtETga6Oj0YshDAm-236" value="Value 2" style="connectable=0;recursiveResize=0;strokeColor=inherit;fillColor=inherit;align=center;whiteSpace=wrap;html=1;" vertex="1" parent="oMkmgtETga6Oj0YshDAm-234">
          <mxGeometry x="93" width="94" height="32" as="geometry">
            <mxRectangle width="94" height="32" as="alternateBounds" />
          </mxGeometry>
        </mxCell>
        <mxCell id="oMkmgtETga6Oj0YshDAm-237" value="Value 3" style="connectable=0;recursiveResize=0;strokeColor=inherit;fillColor=inherit;align=center;whiteSpace=wrap;html=1;" vertex="1" parent="oMkmgtETga6Oj0YshDAm-234">
          <mxGeometry x="187" width="93" height="32" as="geometry">
            <mxRectangle width="93" height="32" as="alternateBounds" />
          </mxGeometry>
        </mxCell>
        <mxCell id="oMkmgtETga6Oj0YshDAm-238" value="" style="shape=tableRow;horizontal=0;startSize=0;swimlaneHead=0;swimlaneBody=0;top=0;left=0;bottom=0;right=0;dropTarget=0;collapsible=0;recursiveResize=0;expand=0;fontStyle=1;strokeColor=inherit;fillColor=#EAF2D3;" vertex="1" parent="oMkmgtETga6Oj0YshDAm-229">
          <mxGeometry y="65" width="280" height="31" as="geometry" />
        </mxCell>
        <mxCell id="oMkmgtETga6Oj0YshDAm-239" value="Value 4" style="connectable=0;recursiveResize=0;strokeColor=inherit;fillColor=inherit;whiteSpace=wrap;html=1;" vertex="1" parent="oMkmgtETga6Oj0YshDAm-238">
          <mxGeometry width="93" height="31" as="geometry">
            <mxRectangle width="93" height="31" as="alternateBounds" />
          </mxGeometry>
        </mxCell>
        <mxCell id="oMkmgtETga6Oj0YshDAm-240" value="Value 5" style="connectable=0;recursiveResize=0;strokeColor=inherit;fillColor=inherit;whiteSpace=wrap;html=1;" vertex="1" parent="oMkmgtETga6Oj0YshDAm-238">
          <mxGeometry x="93" width="94" height="31" as="geometry">
            <mxRectangle width="94" height="31" as="alternateBounds" />
          </mxGeometry>
        </mxCell>
        <mxCell id="oMkmgtETga6Oj0YshDAm-241" value="Value 6" style="connectable=0;recursiveResize=0;strokeColor=inherit;fillColor=inherit;whiteSpace=wrap;html=1;" vertex="1" parent="oMkmgtETga6Oj0YshDAm-238">
          <mxGeometry x="187" width="93" height="31" as="geometry">
            <mxRectangle width="93" height="31" as="alternateBounds" />
          </mxGeometry>
        </mxCell>
        <mxCell id="oMkmgtETga6Oj0YshDAm-242" value="" style="shape=tableRow;horizontal=0;startSize=0;swimlaneHead=0;swimlaneBody=0;top=0;left=0;bottom=0;right=0;dropTarget=0;collapsible=0;recursiveResize=0;expand=0;fontStyle=0;strokeColor=inherit;fillColor=#ffffff;" vertex="1" parent="oMkmgtETga6Oj0YshDAm-229">
          <mxGeometry y="96" width="280" height="33" as="geometry" />
        </mxCell>
        <mxCell id="oMkmgtETga6Oj0YshDAm-243" value="Value 7" style="connectable=0;recursiveResize=0;strokeColor=inherit;fillColor=inherit;fontStyle=0;align=center;whiteSpace=wrap;html=1;" vertex="1" parent="oMkmgtETga6Oj0YshDAm-242">
          <mxGeometry width="93" height="33" as="geometry">
            <mxRectangle width="93" height="33" as="alternateBounds" />
          </mxGeometry>
        </mxCell>
        <mxCell id="oMkmgtETga6Oj0YshDAm-244" value="Value 8" style="connectable=0;recursiveResize=0;strokeColor=inherit;fillColor=inherit;fontStyle=0;align=center;whiteSpace=wrap;html=1;" vertex="1" parent="oMkmgtETga6Oj0YshDAm-242">
          <mxGeometry x="93" width="94" height="33" as="geometry">
            <mxRectangle width="94" height="33" as="alternateBounds" />
          </mxGeometry>
        </mxCell>
        <mxCell id="oMkmgtETga6Oj0YshDAm-245" value="Value 9" style="connectable=0;recursiveResize=0;strokeColor=inherit;fillColor=inherit;fontStyle=0;align=center;whiteSpace=wrap;html=1;" vertex="1" parent="oMkmgtETga6Oj0YshDAm-242">
          <mxGeometry x="187" width="93" height="33" as="geometry">
            <mxRectangle width="93" height="33" as="alternateBounds" />
          </mxGeometry>
        </mxCell>
        <mxCell id="oMkmgtETga6Oj0YshDAm-246" value="" style="shape=tableRow;horizontal=0;startSize=0;swimlaneHead=0;swimlaneBody=0;top=0;left=0;bottom=0;right=0;dropTarget=0;collapsible=0;recursiveResize=0;expand=0;fontStyle=1;strokeColor=inherit;fillColor=#EAF2D3;" vertex="1" parent="oMkmgtETga6Oj0YshDAm-229">
          <mxGeometry y="129" width="280" height="31" as="geometry" />
        </mxCell>
        <mxCell id="oMkmgtETga6Oj0YshDAm-247" value="Value 10" style="connectable=0;recursiveResize=0;strokeColor=inherit;fillColor=inherit;whiteSpace=wrap;html=1;" vertex="1" parent="oMkmgtETga6Oj0YshDAm-246">
          <mxGeometry width="93" height="31" as="geometry">
            <mxRectangle width="93" height="31" as="alternateBounds" />
          </mxGeometry>
        </mxCell>
        <mxCell id="oMkmgtETga6Oj0YshDAm-248" value="Value 11" style="connectable=0;recursiveResize=0;strokeColor=inherit;fillColor=inherit;whiteSpace=wrap;html=1;" vertex="1" parent="oMkmgtETga6Oj0YshDAm-246">
          <mxGeometry x="93" width="94" height="31" as="geometry">
            <mxRectangle width="94" height="31" as="alternateBounds" />
          </mxGeometry>
        </mxCell>
        <mxCell id="oMkmgtETga6Oj0YshDAm-249" value="Value 12" style="connectable=0;recursiveResize=0;strokeColor=inherit;fillColor=inherit;whiteSpace=wrap;html=1;" vertex="1" parent="oMkmgtETga6Oj0YshDAm-246">
          <mxGeometry x="187" width="93" height="31" as="geometry">
            <mxRectangle width="93" height="31" as="alternateBounds" />
          </mxGeometry>
        </mxCell>
        <mxCell id="oMkmgtETga6Oj0YshDAm-250" style="edgeStyle=orthogonalEdgeStyle;rounded=0;orthogonalLoop=1;jettySize=auto;html=1;exitX=1;exitY=0.5;exitDx=0;exitDy=0;entryX=0.541;entryY=0;entryDx=0;entryDy=0;entryPerimeter=0;" edge="1" parent="1" source="oMkmgtETga6Oj0YshDAm-205" target="oMkmgtETga6Oj0YshDAm-228">
          <mxGeometry relative="1" as="geometry" />
        </mxCell>
        <mxCell id="oMkmgtETga6Oj0YshDAm-251" style="edgeStyle=orthogonalEdgeStyle;rounded=0;orthogonalLoop=1;jettySize=auto;html=1;exitX=0;exitY=0.5;exitDx=0;exitDy=0;entryX=0.534;entryY=0.004;entryDx=0;entryDy=0;entryPerimeter=0;" edge="1" parent="1" source="oMkmgtETga6Oj0YshDAm-204" target="oMkmgtETga6Oj0YshDAm-206">
          <mxGeometry relative="1" as="geometry" />
        </mxCell>
        <mxCell id="oMkmgtETga6Oj0YshDAm-261" style="edgeStyle=orthogonalEdgeStyle;rounded=0;orthogonalLoop=1;jettySize=auto;html=1;exitX=0.5;exitY=0;exitDx=0;exitDy=0;entryX=0.5;entryY=1;entryDx=0;entryDy=0;" edge="1" parent="1" source="oMkmgtETga6Oj0YshDAm-253" target="oMkmgtETga6Oj0YshDAm-205">
          <mxGeometry relative="1" as="geometry">
            <Array as="points">
              <mxPoint x="2990" y="740" />
              <mxPoint x="2985" y="740" />
            </Array>
          </mxGeometry>
        </mxCell>
        <mxCell id="oMkmgtETga6Oj0YshDAm-253" value="Prescription Page" style="swimlane;whiteSpace=wrap;html=1;" vertex="1" parent="1">
          <mxGeometry x="2890" y="1640" width="200" height="200" as="geometry" />
        </mxCell>
        <mxCell id="oMkmgtETga6Oj0YshDAm-254" value="info" style="rounded=0;whiteSpace=wrap;html=1;" vertex="1" parent="oMkmgtETga6Oj0YshDAm-253">
          <mxGeometry x="40" y="40" width="120" height="80" as="geometry" />
        </mxCell>
        <mxCell id="oMkmgtETga6Oj0YshDAm-255" value="give" style="rounded=1;whiteSpace=wrap;html=1;fillColor=#d5e8d4;strokeColor=#82b366;" vertex="1" parent="oMkmgtETga6Oj0YshDAm-253">
          <mxGeometry x="80" y="160" width="70" height="20" as="geometry" />
        </mxCell>
        <mxCell id="oMkmgtETga6Oj0YshDAm-257" value="presentation view page" style="swimlane;whiteSpace=wrap;html=1;" vertex="1" parent="1">
          <mxGeometry x="1205" y="740" width="200" height="200" as="geometry" />
        </mxCell>
        <mxCell id="oMkmgtETga6Oj0YshDAm-258" value="presentation" style="rounded=0;whiteSpace=wrap;html=1;" vertex="1" parent="oMkmgtETga6Oj0YshDAm-257">
          <mxGeometry x="40" y="50" width="130" height="110" as="geometry" />
        </mxCell>
        <mxCell id="oMkmgtETga6Oj0YshDAm-262" value="&lt;font style=&quot;font-size: 24px;&quot;&gt;Admin&lt;/font&gt;" style="swimlane;whiteSpace=wrap;html=1;" vertex="1" parent="1">
          <mxGeometry x="1020" y="-1220" width="555" height="780" as="geometry" />
        </mxCell>
        <mxCell id="oMkmgtETga6Oj0YshDAm-378" value="user list" style="rounded=0;whiteSpace=wrap;html=1;" vertex="1" parent="oMkmgtETga6Oj0YshDAm-262">
          <mxGeometry x="48" y="90" width="120" height="60" as="geometry" />
        </mxCell>
        <mxCell id="oMkmgtETga6Oj0YshDAm-263" value="Buyer" style="swimlane;whiteSpace=wrap;html=1;" vertex="1" parent="1">
          <mxGeometry x="-270" y="-1180" width="510" height="400" as="geometry" />
        </mxCell>
        <mxCell id="oMkmgtETga6Oj0YshDAm-265" value="Batch List" style="rounded=0;whiteSpace=wrap;html=1;fillColor=#d5e8d4;strokeColor=#82b366;" vertex="1" parent="oMkmgtETga6Oj0YshDAm-263">
          <mxGeometry x="40" y="50" width="180" height="60" as="geometry" />
        </mxCell>
        <mxCell id="oMkmgtETga6Oj0YshDAm-266" value="Prev Order" style="rounded=0;whiteSpace=wrap;html=1;fillColor=#d5e8d4;strokeColor=#82b366;" vertex="1" parent="oMkmgtETga6Oj0YshDAm-263">
          <mxGeometry x="310" y="50" width="160" height="60" as="geometry" />
        </mxCell>
        <mxCell id="oMkmgtETga6Oj0YshDAm-267" value="batch list" style="swimlane;whiteSpace=wrap;html=1;" vertex="1" parent="1">
          <mxGeometry x="-580" y="-710" width="360" height="330" as="geometry" />
        </mxCell>
        <mxCell id="oMkmgtETga6Oj0YshDAm-268" value="Assets" style="childLayout=tableLayout;recursiveResize=0;strokeColor=#98bf21;fillColor=#A7C942;shadow=1;" vertex="1" parent="oMkmgtETga6Oj0YshDAm-267">
          <mxGeometry x="40" y="50" width="280" height="189" as="geometry" />
        </mxCell>
        <mxCell id="oMkmgtETga6Oj0YshDAm-269" style="shape=tableRow;horizontal=0;startSize=0;swimlaneHead=0;swimlaneBody=0;top=0;left=0;bottom=0;right=0;dropTarget=0;collapsible=0;recursiveResize=0;expand=0;fontStyle=0;strokeColor=inherit;fillColor=#ffffff;" vertex="1" parent="oMkmgtETga6Oj0YshDAm-268">
          <mxGeometry width="280" height="41" as="geometry" />
        </mxCell>
        <mxCell id="oMkmgtETga6Oj0YshDAm-270" value="Title 1" style="connectable=0;recursiveResize=0;strokeColor=inherit;fillColor=#A7C942;align=center;fontStyle=1;fontColor=#FFFFFF;html=1;" vertex="1" parent="oMkmgtETga6Oj0YshDAm-269">
          <mxGeometry width="93" height="41" as="geometry">
            <mxRectangle width="93" height="41" as="alternateBounds" />
          </mxGeometry>
        </mxCell>
        <mxCell id="oMkmgtETga6Oj0YshDAm-271" value="Title 2" style="connectable=0;recursiveResize=0;strokeColor=inherit;fillColor=#A7C942;align=center;fontStyle=1;fontColor=#FFFFFF;html=1;" vertex="1" parent="oMkmgtETga6Oj0YshDAm-269">
          <mxGeometry x="93" width="94" height="41" as="geometry">
            <mxRectangle width="94" height="41" as="alternateBounds" />
          </mxGeometry>
        </mxCell>
        <mxCell id="oMkmgtETga6Oj0YshDAm-272" value="Title 3" style="connectable=0;recursiveResize=0;strokeColor=inherit;fillColor=#A7C942;align=center;fontStyle=1;fontColor=#FFFFFF;html=1;" vertex="1" parent="oMkmgtETga6Oj0YshDAm-269">
          <mxGeometry x="187" width="93" height="41" as="geometry">
            <mxRectangle width="93" height="41" as="alternateBounds" />
          </mxGeometry>
        </mxCell>
        <mxCell id="oMkmgtETga6Oj0YshDAm-273" value="" style="shape=tableRow;horizontal=0;startSize=0;swimlaneHead=0;swimlaneBody=0;top=0;left=0;bottom=0;right=0;dropTarget=0;collapsible=0;recursiveResize=0;expand=0;fontStyle=0;strokeColor=inherit;fillColor=#ffffff;" vertex="1" parent="oMkmgtETga6Oj0YshDAm-268">
          <mxGeometry y="41" width="280" height="29" as="geometry" />
        </mxCell>
        <mxCell id="oMkmgtETga6Oj0YshDAm-274" value="Value 1" style="connectable=0;recursiveResize=0;strokeColor=inherit;fillColor=inherit;align=center;whiteSpace=wrap;html=1;" vertex="1" parent="oMkmgtETga6Oj0YshDAm-273">
          <mxGeometry width="93" height="29" as="geometry">
            <mxRectangle width="93" height="29" as="alternateBounds" />
          </mxGeometry>
        </mxCell>
        <mxCell id="oMkmgtETga6Oj0YshDAm-275" value="Value 2" style="connectable=0;recursiveResize=0;strokeColor=inherit;fillColor=inherit;align=center;whiteSpace=wrap;html=1;" vertex="1" parent="oMkmgtETga6Oj0YshDAm-273">
          <mxGeometry x="93" width="94" height="29" as="geometry">
            <mxRectangle width="94" height="29" as="alternateBounds" />
          </mxGeometry>
        </mxCell>
        <mxCell id="oMkmgtETga6Oj0YshDAm-276" value="Details" style="connectable=0;recursiveResize=0;strokeColor=inherit;fillColor=inherit;align=center;whiteSpace=wrap;html=1;" vertex="1" parent="oMkmgtETga6Oj0YshDAm-273">
          <mxGeometry x="187" width="93" height="29" as="geometry">
            <mxRectangle width="93" height="29" as="alternateBounds" />
          </mxGeometry>
        </mxCell>
        <mxCell id="oMkmgtETga6Oj0YshDAm-277" value="" style="shape=tableRow;horizontal=0;startSize=0;swimlaneHead=0;swimlaneBody=0;top=0;left=0;bottom=0;right=0;dropTarget=0;collapsible=0;recursiveResize=0;expand=0;fontStyle=1;strokeColor=inherit;fillColor=#EAF2D3;" vertex="1" parent="oMkmgtETga6Oj0YshDAm-268">
          <mxGeometry y="70" width="280" height="39" as="geometry" />
        </mxCell>
        <mxCell id="oMkmgtETga6Oj0YshDAm-278" value="Value 4" style="connectable=0;recursiveResize=0;strokeColor=inherit;fillColor=inherit;whiteSpace=wrap;html=1;" vertex="1" parent="oMkmgtETga6Oj0YshDAm-277">
          <mxGeometry width="93" height="39" as="geometry">
            <mxRectangle width="93" height="39" as="alternateBounds" />
          </mxGeometry>
        </mxCell>
        <mxCell id="oMkmgtETga6Oj0YshDAm-279" value="Value 5" style="connectable=0;recursiveResize=0;strokeColor=inherit;fillColor=inherit;whiteSpace=wrap;html=1;" vertex="1" parent="oMkmgtETga6Oj0YshDAm-277">
          <mxGeometry x="93" width="94" height="39" as="geometry">
            <mxRectangle width="94" height="39" as="alternateBounds" />
          </mxGeometry>
        </mxCell>
        <mxCell id="oMkmgtETga6Oj0YshDAm-280" value="Details" style="connectable=0;recursiveResize=0;strokeColor=inherit;fillColor=inherit;whiteSpace=wrap;html=1;" vertex="1" parent="oMkmgtETga6Oj0YshDAm-277">
          <mxGeometry x="187" width="93" height="39" as="geometry">
            <mxRectangle width="93" height="39" as="alternateBounds" />
          </mxGeometry>
        </mxCell>
        <mxCell id="oMkmgtETga6Oj0YshDAm-281" value="" style="shape=tableRow;horizontal=0;startSize=0;swimlaneHead=0;swimlaneBody=0;top=0;left=0;bottom=0;right=0;dropTarget=0;collapsible=0;recursiveResize=0;expand=0;fontStyle=0;strokeColor=inherit;fillColor=#ffffff;" vertex="1" parent="oMkmgtETga6Oj0YshDAm-268">
          <mxGeometry y="109" width="280" height="41" as="geometry" />
        </mxCell>
        <mxCell id="oMkmgtETga6Oj0YshDAm-282" value="Value 7" style="connectable=0;recursiveResize=0;strokeColor=inherit;fillColor=inherit;fontStyle=0;align=center;whiteSpace=wrap;html=1;" vertex="1" parent="oMkmgtETga6Oj0YshDAm-281">
          <mxGeometry width="93" height="41" as="geometry">
            <mxRectangle width="93" height="41" as="alternateBounds" />
          </mxGeometry>
        </mxCell>
        <mxCell id="oMkmgtETga6Oj0YshDAm-283" value="Value 8" style="connectable=0;recursiveResize=0;strokeColor=inherit;fillColor=inherit;fontStyle=0;align=center;whiteSpace=wrap;html=1;" vertex="1" parent="oMkmgtETga6Oj0YshDAm-281">
          <mxGeometry x="93" width="94" height="41" as="geometry">
            <mxRectangle width="94" height="41" as="alternateBounds" />
          </mxGeometry>
        </mxCell>
        <mxCell id="oMkmgtETga6Oj0YshDAm-284" value="Details" style="connectable=0;recursiveResize=0;strokeColor=inherit;fillColor=inherit;fontStyle=0;align=center;whiteSpace=wrap;html=1;" vertex="1" parent="oMkmgtETga6Oj0YshDAm-281">
          <mxGeometry x="187" width="93" height="41" as="geometry">
            <mxRectangle width="93" height="41" as="alternateBounds" />
          </mxGeometry>
        </mxCell>
        <mxCell id="oMkmgtETga6Oj0YshDAm-285" value="" style="shape=tableRow;horizontal=0;startSize=0;swimlaneHead=0;swimlaneBody=0;top=0;left=0;bottom=0;right=0;dropTarget=0;collapsible=0;recursiveResize=0;expand=0;fontStyle=1;strokeColor=inherit;fillColor=#EAF2D3;" vertex="1" parent="oMkmgtETga6Oj0YshDAm-268">
          <mxGeometry y="150" width="280" height="39" as="geometry" />
        </mxCell>
        <mxCell id="oMkmgtETga6Oj0YshDAm-286" value="Value 10" style="connectable=0;recursiveResize=0;strokeColor=inherit;fillColor=inherit;whiteSpace=wrap;html=1;" vertex="1" parent="oMkmgtETga6Oj0YshDAm-285">
          <mxGeometry width="93" height="39" as="geometry">
            <mxRectangle width="93" height="39" as="alternateBounds" />
          </mxGeometry>
        </mxCell>
        <mxCell id="oMkmgtETga6Oj0YshDAm-287" value="Value 11" style="connectable=0;recursiveResize=0;strokeColor=inherit;fillColor=inherit;whiteSpace=wrap;html=1;" vertex="1" parent="oMkmgtETga6Oj0YshDAm-285">
          <mxGeometry x="93" width="94" height="39" as="geometry">
            <mxRectangle width="94" height="39" as="alternateBounds" />
          </mxGeometry>
        </mxCell>
        <mxCell id="oMkmgtETga6Oj0YshDAm-288" value="Details" style="connectable=0;recursiveResize=0;strokeColor=inherit;fillColor=inherit;whiteSpace=wrap;html=1;" vertex="1" parent="oMkmgtETga6Oj0YshDAm-285">
          <mxGeometry x="187" width="93" height="39" as="geometry">
            <mxRectangle width="93" height="39" as="alternateBounds" />
          </mxGeometry>
        </mxCell>
        <mxCell id="oMkmgtETga6Oj0YshDAm-297" value="information for&amp;nbsp; ready to get order" style="swimlane;whiteSpace=wrap;html=1;fillColor=#f8cecc;strokeColor=#b85450;" vertex="1" parent="1">
          <mxGeometry x="-180" y="-320" width="200" height="200" as="geometry" />
        </mxCell>
        <mxCell id="oMkmgtETga6Oj0YshDAm-299" value="hens info" style="rounded=0;whiteSpace=wrap;html=1;" vertex="1" parent="oMkmgtETga6Oj0YshDAm-297">
          <mxGeometry x="10" y="40" width="80" height="30" as="geometry" />
        </mxCell>
        <mxCell id="oMkmgtETga6Oj0YshDAm-300" value="Price" style="rounded=1;whiteSpace=wrap;html=1;" vertex="1" parent="oMkmgtETga6Oj0YshDAm-297">
          <mxGeometry x="110" y="40" width="60" height="30" as="geometry" />
        </mxCell>
        <mxCell id="oMkmgtETga6Oj0YshDAm-301" value="published&amp;nbsp;" style="rounded=0;whiteSpace=wrap;html=1;fillColor=#d5e8d4;strokeColor=#82b366;" vertex="1" parent="oMkmgtETga6Oj0YshDAm-297">
          <mxGeometry x="40" y="120" width="120" height="40" as="geometry" />
        </mxCell>
        <mxCell id="oMkmgtETga6Oj0YshDAm-298" style="edgeStyle=orthogonalEdgeStyle;rounded=0;orthogonalLoop=1;jettySize=auto;html=1;exitX=0.5;exitY=0;exitDx=0;exitDy=0;entryX=0.5;entryY=1;entryDx=0;entryDy=0;" edge="1" parent="1" source="oMkmgtETga6Oj0YshDAm-296" target="oMkmgtETga6Oj0YshDAm-297">
          <mxGeometry relative="1" as="geometry">
            <Array as="points">
              <mxPoint x="586" y="270" />
              <mxPoint x="-80" y="270" />
            </Array>
          </mxGeometry>
        </mxCell>
        <mxCell id="oMkmgtETga6Oj0YshDAm-302" style="edgeStyle=orthogonalEdgeStyle;rounded=0;orthogonalLoop=1;jettySize=auto;html=1;exitX=0;exitY=0.5;exitDx=0;exitDy=0;" edge="1" parent="1" source="oMkmgtETga6Oj0YshDAm-301" target="oMkmgtETga6Oj0YshDAm-265">
          <mxGeometry relative="1" as="geometry">
            <Array as="points">
              <mxPoint x="-200" y="-180" />
              <mxPoint x="-200" y="-635" />
              <mxPoint x="-140" y="-635" />
            </Array>
          </mxGeometry>
        </mxCell>
        <mxCell id="oMkmgtETga6Oj0YshDAm-303" style="edgeStyle=orthogonalEdgeStyle;rounded=0;orthogonalLoop=1;jettySize=auto;html=1;exitX=0;exitY=0.5;exitDx=0;exitDy=0;entryX=0.5;entryY=0;entryDx=0;entryDy=0;" edge="1" parent="1" source="oMkmgtETga6Oj0YshDAm-265" target="oMkmgtETga6Oj0YshDAm-267">
          <mxGeometry relative="1" as="geometry" />
        </mxCell>
        <mxCell id="oMkmgtETga6Oj0YshDAm-304" value="Order details&amp;nbsp;" style="swimlane;whiteSpace=wrap;html=1;" vertex="1" parent="1">
          <mxGeometry x="181" y="-671" width="379" height="311" as="geometry" />
        </mxCell>
        <mxCell id="oMkmgtETga6Oj0YshDAm-306" value="Info" style="rounded=0;whiteSpace=wrap;html=1;" vertex="1" parent="oMkmgtETga6Oj0YshDAm-304">
          <mxGeometry x="96.25" y="56.5" width="186.87" height="168" as="geometry" />
        </mxCell>
        <mxCell id="oMkmgtETga6Oj0YshDAm-307" value="&amp;nbsp;Order" style="rounded=0;whiteSpace=wrap;html=1;fillColor=#d5e8d4;strokeColor=#82b366;" vertex="1" parent="oMkmgtETga6Oj0YshDAm-304">
          <mxGeometry x="133" y="241" width="120" height="60" as="geometry" />
        </mxCell>
        <mxCell id="oMkmgtETga6Oj0YshDAm-305" style="edgeStyle=orthogonalEdgeStyle;rounded=0;orthogonalLoop=1;jettySize=auto;html=1;exitX=1;exitY=0.5;exitDx=0;exitDy=0;entryX=0.5;entryY=0;entryDx=0;entryDy=0;" edge="1" parent="1" source="oMkmgtETga6Oj0YshDAm-277" target="oMkmgtETga6Oj0YshDAm-304">
          <mxGeometry relative="1" as="geometry" />
        </mxCell>
        <mxCell id="oMkmgtETga6Oj0YshDAm-308" style="edgeStyle=orthogonalEdgeStyle;rounded=0;orthogonalLoop=1;jettySize=auto;html=1;exitX=0;exitY=0.5;exitDx=0;exitDy=0;entryX=0.5;entryY=1;entryDx=0;entryDy=0;" edge="1" parent="1" source="oMkmgtETga6Oj0YshDAm-307" target="oMkmgtETga6Oj0YshDAm-266">
          <mxGeometry relative="1" as="geometry" />
        </mxCell>
        <mxCell id="oMkmgtETga6Oj0YshDAm-330" value="order list" style="swimlane;whiteSpace=wrap;html=1;" vertex="1" parent="1">
          <mxGeometry x="160" y="-310" width="360" height="330" as="geometry" />
        </mxCell>
        <mxCell id="oMkmgtETga6Oj0YshDAm-352" value="Assets" style="childLayout=tableLayout;recursiveResize=0;strokeColor=#98bf21;fillColor=#A7C942;shadow=1;" vertex="1" parent="oMkmgtETga6Oj0YshDAm-330">
          <mxGeometry x="40" y="80" width="280" height="160" as="geometry" />
        </mxCell>
        <mxCell id="oMkmgtETga6Oj0YshDAm-353" style="shape=tableRow;horizontal=0;startSize=0;swimlaneHead=0;swimlaneBody=0;top=0;left=0;bottom=0;right=0;dropTarget=0;collapsible=0;recursiveResize=0;expand=0;fontStyle=0;strokeColor=inherit;fillColor=#ffffff;" vertex="1" parent="oMkmgtETga6Oj0YshDAm-352">
          <mxGeometry width="280" height="33" as="geometry" />
        </mxCell>
        <mxCell id="oMkmgtETga6Oj0YshDAm-354" value="Title 1" style="connectable=0;recursiveResize=0;strokeColor=inherit;fillColor=#A7C942;align=center;fontStyle=1;fontColor=#FFFFFF;html=1;" vertex="1" parent="oMkmgtETga6Oj0YshDAm-353">
          <mxGeometry width="93" height="33" as="geometry">
            <mxRectangle width="93" height="33" as="alternateBounds" />
          </mxGeometry>
        </mxCell>
        <mxCell id="oMkmgtETga6Oj0YshDAm-355" value="Title 2" style="connectable=0;recursiveResize=0;strokeColor=inherit;fillColor=#A7C942;align=center;fontStyle=1;fontColor=#FFFFFF;html=1;" vertex="1" parent="oMkmgtETga6Oj0YshDAm-353">
          <mxGeometry x="93" width="94" height="33" as="geometry">
            <mxRectangle width="94" height="33" as="alternateBounds" />
          </mxGeometry>
        </mxCell>
        <mxCell id="oMkmgtETga6Oj0YshDAm-356" value="Title 3" style="connectable=0;recursiveResize=0;strokeColor=inherit;fillColor=#A7C942;align=center;fontStyle=1;fontColor=#FFFFFF;html=1;" vertex="1" parent="oMkmgtETga6Oj0YshDAm-353">
          <mxGeometry x="187" width="93" height="33" as="geometry">
            <mxRectangle width="93" height="33" as="alternateBounds" />
          </mxGeometry>
        </mxCell>
        <mxCell id="oMkmgtETga6Oj0YshDAm-357" value="" style="shape=tableRow;horizontal=0;startSize=0;swimlaneHead=0;swimlaneBody=0;top=0;left=0;bottom=0;right=0;dropTarget=0;collapsible=0;recursiveResize=0;expand=0;fontStyle=0;strokeColor=inherit;fillColor=#ffffff;" vertex="1" parent="oMkmgtETga6Oj0YshDAm-352">
          <mxGeometry y="33" width="280" height="32" as="geometry" />
        </mxCell>
        <mxCell id="oMkmgtETga6Oj0YshDAm-358" value="Value 1" style="connectable=0;recursiveResize=0;strokeColor=inherit;fillColor=inherit;align=center;whiteSpace=wrap;html=1;" vertex="1" parent="oMkmgtETga6Oj0YshDAm-357">
          <mxGeometry width="93" height="32" as="geometry">
            <mxRectangle width="93" height="32" as="alternateBounds" />
          </mxGeometry>
        </mxCell>
        <mxCell id="oMkmgtETga6Oj0YshDAm-359" value="Value 2" style="connectable=0;recursiveResize=0;strokeColor=inherit;fillColor=inherit;align=center;whiteSpace=wrap;html=1;" vertex="1" parent="oMkmgtETga6Oj0YshDAm-357">
          <mxGeometry x="93" width="94" height="32" as="geometry">
            <mxRectangle width="94" height="32" as="alternateBounds" />
          </mxGeometry>
        </mxCell>
        <mxCell id="oMkmgtETga6Oj0YshDAm-360" value="Value 3" style="connectable=0;recursiveResize=0;strokeColor=inherit;fillColor=inherit;align=center;whiteSpace=wrap;html=1;" vertex="1" parent="oMkmgtETga6Oj0YshDAm-357">
          <mxGeometry x="187" width="93" height="32" as="geometry">
            <mxRectangle width="93" height="32" as="alternateBounds" />
          </mxGeometry>
        </mxCell>
        <mxCell id="oMkmgtETga6Oj0YshDAm-361" value="" style="shape=tableRow;horizontal=0;startSize=0;swimlaneHead=0;swimlaneBody=0;top=0;left=0;bottom=0;right=0;dropTarget=0;collapsible=0;recursiveResize=0;expand=0;fontStyle=1;strokeColor=inherit;fillColor=#EAF2D3;" vertex="1" parent="oMkmgtETga6Oj0YshDAm-352">
          <mxGeometry y="65" width="280" height="31" as="geometry" />
        </mxCell>
        <mxCell id="oMkmgtETga6Oj0YshDAm-362" value="Value 4" style="connectable=0;recursiveResize=0;strokeColor=inherit;fillColor=inherit;whiteSpace=wrap;html=1;" vertex="1" parent="oMkmgtETga6Oj0YshDAm-361">
          <mxGeometry width="93" height="31" as="geometry">
            <mxRectangle width="93" height="31" as="alternateBounds" />
          </mxGeometry>
        </mxCell>
        <mxCell id="oMkmgtETga6Oj0YshDAm-363" value="Value 5" style="connectable=0;recursiveResize=0;strokeColor=inherit;fillColor=inherit;whiteSpace=wrap;html=1;" vertex="1" parent="oMkmgtETga6Oj0YshDAm-361">
          <mxGeometry x="93" width="94" height="31" as="geometry">
            <mxRectangle width="94" height="31" as="alternateBounds" />
          </mxGeometry>
        </mxCell>
        <mxCell id="oMkmgtETga6Oj0YshDAm-364" value="Value 6" style="connectable=0;recursiveResize=0;strokeColor=inherit;fillColor=inherit;whiteSpace=wrap;html=1;" vertex="1" parent="oMkmgtETga6Oj0YshDAm-361">
          <mxGeometry x="187" width="93" height="31" as="geometry">
            <mxRectangle width="93" height="31" as="alternateBounds" />
          </mxGeometry>
        </mxCell>
        <mxCell id="oMkmgtETga6Oj0YshDAm-365" value="" style="shape=tableRow;horizontal=0;startSize=0;swimlaneHead=0;swimlaneBody=0;top=0;left=0;bottom=0;right=0;dropTarget=0;collapsible=0;recursiveResize=0;expand=0;fontStyle=0;strokeColor=inherit;fillColor=#ffffff;" vertex="1" parent="oMkmgtETga6Oj0YshDAm-352">
          <mxGeometry y="96" width="280" height="33" as="geometry" />
        </mxCell>
        <mxCell id="oMkmgtETga6Oj0YshDAm-366" value="Value 7" style="connectable=0;recursiveResize=0;strokeColor=inherit;fillColor=inherit;fontStyle=0;align=center;whiteSpace=wrap;html=1;" vertex="1" parent="oMkmgtETga6Oj0YshDAm-365">
          <mxGeometry width="93" height="33" as="geometry">
            <mxRectangle width="93" height="33" as="alternateBounds" />
          </mxGeometry>
        </mxCell>
        <mxCell id="oMkmgtETga6Oj0YshDAm-367" value="Value 8" style="connectable=0;recursiveResize=0;strokeColor=inherit;fillColor=inherit;fontStyle=0;align=center;whiteSpace=wrap;html=1;" vertex="1" parent="oMkmgtETga6Oj0YshDAm-365">
          <mxGeometry x="93" width="94" height="33" as="geometry">
            <mxRectangle width="94" height="33" as="alternateBounds" />
          </mxGeometry>
        </mxCell>
        <mxCell id="oMkmgtETga6Oj0YshDAm-368" value="Value 9" style="connectable=0;recursiveResize=0;strokeColor=inherit;fillColor=inherit;fontStyle=0;align=center;whiteSpace=wrap;html=1;" vertex="1" parent="oMkmgtETga6Oj0YshDAm-365">
          <mxGeometry x="187" width="93" height="33" as="geometry">
            <mxRectangle width="93" height="33" as="alternateBounds" />
          </mxGeometry>
        </mxCell>
        <mxCell id="oMkmgtETga6Oj0YshDAm-369" value="" style="shape=tableRow;horizontal=0;startSize=0;swimlaneHead=0;swimlaneBody=0;top=0;left=0;bottom=0;right=0;dropTarget=0;collapsible=0;recursiveResize=0;expand=0;fontStyle=1;strokeColor=inherit;fillColor=#EAF2D3;" vertex="1" parent="oMkmgtETga6Oj0YshDAm-352">
          <mxGeometry y="129" width="280" height="31" as="geometry" />
        </mxCell>
        <mxCell id="oMkmgtETga6Oj0YshDAm-370" value="Value 10" style="connectable=0;recursiveResize=0;strokeColor=inherit;fillColor=inherit;whiteSpace=wrap;html=1;" vertex="1" parent="oMkmgtETga6Oj0YshDAm-369">
          <mxGeometry width="93" height="31" as="geometry">
            <mxRectangle width="93" height="31" as="alternateBounds" />
          </mxGeometry>
        </mxCell>
        <mxCell id="oMkmgtETga6Oj0YshDAm-371" value="Value 11" style="connectable=0;recursiveResize=0;strokeColor=inherit;fillColor=inherit;whiteSpace=wrap;html=1;" vertex="1" parent="oMkmgtETga6Oj0YshDAm-369">
          <mxGeometry x="93" width="94" height="31" as="geometry">
            <mxRectangle width="94" height="31" as="alternateBounds" />
          </mxGeometry>
        </mxCell>
        <mxCell id="oMkmgtETga6Oj0YshDAm-372" value="Value 12" style="connectable=0;recursiveResize=0;strokeColor=inherit;fillColor=inherit;whiteSpace=wrap;html=1;" vertex="1" parent="oMkmgtETga6Oj0YshDAm-369">
          <mxGeometry x="187" width="93" height="31" as="geometry">
            <mxRectangle width="93" height="31" as="alternateBounds" />
          </mxGeometry>
        </mxCell>
        <mxCell id="oMkmgtETga6Oj0YshDAm-373" style="edgeStyle=orthogonalEdgeStyle;rounded=0;orthogonalLoop=1;jettySize=auto;html=1;exitX=1;exitY=0.5;exitDx=0;exitDy=0;entryX=1;entryY=0.5;entryDx=0;entryDy=0;" edge="1" parent="1" source="oMkmgtETga6Oj0YshDAm-266" target="oMkmgtETga6Oj0YshDAm-330">
          <mxGeometry relative="1" as="geometry">
            <Array as="points">
              <mxPoint x="630" y="-1100" />
              <mxPoint x="630" y="-145" />
            </Array>
          </mxGeometry>
        </mxCell>
        <mxCell id="oMkmgtETga6Oj0YshDAm-375" style="edgeStyle=orthogonalEdgeStyle;rounded=0;orthogonalLoop=1;jettySize=auto;html=1;exitX=1;exitY=0.5;exitDx=0;exitDy=0;entryX=0;entryY=0.5;entryDx=0;entryDy=0;" edge="1" parent="1" source="oMkmgtETga6Oj0YshDAm-374" target="oMkmgtETga6Oj0YshDAm-330">
          <mxGeometry relative="1" as="geometry">
            <Array as="points">
              <mxPoint x="100" y="520" />
              <mxPoint x="100" y="-145" />
            </Array>
          </mxGeometry>
        </mxCell>
        <mxCell id="oMkmgtETga6Oj0YshDAm-377" style="edgeStyle=orthogonalEdgeStyle;rounded=0;orthogonalLoop=1;jettySize=auto;html=1;entryX=1;entryY=0.75;entryDx=0;entryDy=0;" edge="1" parent="1" source="oMkmgtETga6Oj0YshDAm-376" target="oMkmgtETga6Oj0YshDAm-330">
          <mxGeometry relative="1" as="geometry">
            <Array as="points">
              <mxPoint x="1890" y="630" />
              <mxPoint x="1560" y="630" />
              <mxPoint x="1560" y="-63" />
            </Array>
          </mxGeometry>
        </mxCell>
        <mxCell id="oMkmgtETga6Oj0YshDAm-379" value="Food seller" style="swimlane;whiteSpace=wrap;html=1;fillColor=#f8cecc;strokeColor=#b85450;" vertex="1" parent="1">
          <mxGeometry x="2150" y="-1210" width="380" height="730" as="geometry" />
        </mxCell>
        <mxCell id="oMkmgtETga6Oj0YshDAm-380" value="New Order" style="rounded=0;whiteSpace=wrap;html=1;" vertex="1" parent="oMkmgtETga6Oj0YshDAm-379">
          <mxGeometry x="40" y="60" width="120" height="60" as="geometry" />
        </mxCell>
        <mxCell id="oMkmgtETga6Oj0YshDAm-381" value="prev oeder" style="rounded=0;whiteSpace=wrap;html=1;" vertex="1" parent="oMkmgtETga6Oj0YshDAm-379">
          <mxGeometry x="230" y="60" width="120" height="60" as="geometry" />
        </mxCell>
        <mxCell id="oMkmgtETga6Oj0YshDAm-388" style="edgeStyle=orthogonalEdgeStyle;rounded=0;orthogonalLoop=1;jettySize=auto;html=1;exitX=1;exitY=0.5;exitDx=0;exitDy=0;entryX=1;entryY=0.5;entryDx=0;entryDy=0;" edge="1" parent="1" source="oMkmgtETga6Oj0YshDAm-381" target="oMkmgtETga6Oj0YshDAm-139">
          <mxGeometry relative="1" as="geometry">
            <Array as="points">
              <mxPoint x="2520" y="-1120" />
              <mxPoint x="2520" y="1520" />
              <mxPoint x="540" y="1520" />
            </Array>
          </mxGeometry>
        </mxCell>
      </root>
    </mxGraphModel>
  </diagram>
</mxfile>
